<?xml version="1.0" encoding="UTF-8"?>
<!DOCTYPE svg PUBLIC "-//W3C//DTD SVG 1.1//EN" "http://www.w3.org/Graphics/SVG/1.1/DTD/svg11.dtd">
<svg xmlns="http://www.w3.org/2000/svg" version="1.1" width="400px" height="400px" style="shape-rendering:geometricPrecision; text-rendering:geometricPrecision; image-rendering:optimizeQuality; fill-rule:evenodd; clip-rule:evenodd" xmlns:xlink="http://www.w3.org/1999/xlink">
<g><path style="opacity:0.945" fill="#fdfdfd" d="M -0.5,-0.5 C 132.833,-0.5 266.167,-0.5 399.5,-0.5C 399.5,132.833 399.5,266.167 399.5,399.5C 266.167,399.5 132.833,399.5 -0.5,399.5C -0.5,266.167 -0.5,132.833 -0.5,-0.5 Z"/></g>
<g><path style="opacity:1" fill="#010101" d="M 184.5,8.5 C 194.167,8.5 203.833,8.5 213.5,8.5C 214.681,10.0672 216.347,10.9005 218.5,11C 226.711,10.9326 234.378,12.5993 241.5,16C 245.211,16.1747 248.878,16.6747 252.5,17.5C 256.801,19.4123 261.135,21.2457 265.5,23C 267.81,23.4966 270.143,23.6633 272.5,23.5C 275.833,24.5 279.167,25.5 282.5,26.5C 285.293,29.6604 288.626,32.1604 292.5,34C 294.345,35.128 296.345,35.628 298.5,35.5C 299.404,36.209 299.737,37.209 299.5,38.5C 302.166,38.933 304.832,39.433 307.5,40C 311.394,43.4044 315.394,46.5711 319.5,49.5C 319.842,50.3382 320.508,50.6716 321.5,50.5C 321.369,51.2389 321.536,51.9056 322,52.5C 325.148,53.7114 327.648,55.7114 329.5,58.5C 329.5,59.8333 329.5,61.1667 329.5,62.5C 330.5,62.5 331.5,62.5 332.5,62.5C 332.167,65.5 333.5,66.8333 336.5,66.5C 336.167,69.5 337.5,70.8333 340.5,70.5C 340.277,73.1142 341.444,74.7809 344,75.5C 344.754,79.0894 346.921,81.0894 350.5,81.5C 352.003,84.5235 354.17,87.1902 357,89.5C 358.445,92.0904 359.612,94.757 360.5,97.5C 360.5,98.8333 360.5,100.167 360.5,101.5C 361.5,101.5 362.5,101.5 363.5,101.5C 363.338,103.527 363.505,105.527 364,107.5C 365.011,108.337 366.178,108.67 367.5,108.5C 367.337,110.857 367.503,113.19 368,115.5C 369.356,116.38 370.856,116.714 372.5,116.5C 372.263,117.791 372.596,118.791 373.5,119.5C 374.5,120.167 375.5,120.833 376.5,121.5C 376.336,124.187 376.503,126.854 377,129.5C 378.883,130.653 379.716,132.319 379.5,134.5C 379.176,138.555 379.509,142.555 380.5,146.5C 381.086,146.709 381.586,147.043 382,147.5C 382.481,151.531 383.147,155.531 384,159.5C 384.414,159.957 384.914,160.291 385.5,160.5C 386.205,169.871 387.205,179.205 388.5,188.5C 389.736,189.246 391.07,189.579 392.5,189.5C 392.5,196.5 392.5,203.5 392.5,210.5C 389.762,209.965 387.928,210.965 387,213.5C 386.832,221.521 386.332,229.521 385.5,237.5C 384.029,238.381 383.196,239.714 383,241.5C 382.667,245.833 382.333,250.167 382,254.5C 379.749,257.017 378.916,260.017 379.5,263.5C 379.5,264.833 379.5,266.167 379.5,267.5C 377.08,270.891 374.747,274.391 372.5,278C 370.114,282.565 368.447,287.398 367.5,292.5C 364.885,294.379 362.719,296.712 361,299.5C 360.517,300.448 360.351,301.448 360.5,302.5C 357.73,304.366 356.23,307.032 356,310.5C 352,313.833 348.333,317.5 345,321.5C 344.51,322.793 344.343,324.127 344.5,325.5C 344.5,325.833 344.5,326.167 344.5,326.5C 341.434,329.217 338.1,331.717 334.5,334C 333.663,335.011 333.33,336.178 333.5,337.5C 330.5,337.167 329.167,338.5 329.5,341.5C 327.319,343.171 324.985,344.671 322.5,346C 321.748,346.671 321.414,347.504 321.5,348.5C 315.776,351.389 310.442,354.889 305.5,359C 303.5,359.667 301.5,360.333 299.5,361C 298.663,362.011 298.33,363.178 298.5,364.5C 295.148,364.53 292.482,365.863 290.5,368.5C 289.127,368.343 287.793,368.51 286.5,369C 282.5,371.333 278.5,373.667 274.5,376C 271.408,375.893 269.075,377.059 267.5,379.5C 258.714,382.419 249.714,384.919 240.5,387C 237.854,387.497 235.187,387.664 232.5,387.5C 226.448,387.731 220.448,388.398 214.5,389.5C 214.5,390.5 214.5,391.5 214.5,392.5C 205.167,392.5 195.833,392.5 186.5,392.5C 186.64,390.876 185.973,389.71 184.5,389C 175.565,387.425 166.565,386.425 157.5,386C 149.272,383.879 141.272,381.212 133.5,378C 130.635,375.714 127.302,374.88 123.5,375.5C 120.618,373.892 117.618,372.559 114.5,371.5C 113.145,368.482 110.812,367.149 107.5,367.5C 107.5,366.5 107.5,365.5 107.5,364.5C 102.931,363.871 98.5972,362.537 94.5,360.5C 92.8693,358.357 90.8693,356.69 88.5,355.5C 88.5858,354.504 88.2524,353.671 87.5,353C 83.398,351.632 81.0647,348.799 80.5,344.5C 79.1667,344.5 77.8333,344.5 76.5,344.5C 76.67,343.178 76.3366,342.011 75.5,341C 73.4233,340.808 71.4233,340.308 69.5,339.5C 68.7174,337.712 67.3841,336.712 65.5,336.5C 65.1667,336.5 64.8333,336.5 64.5,336.5C 63.4051,330.655 60.0718,326.988 54.5,325.5C 52.8203,321.637 51.487,317.637 50.5,313.5C 49.1667,313.5 47.8333,313.5 46.5,313.5C 43.8782,312.235 42.2115,310.235 41.5,307.5C 40.4278,304.37 38.5945,301.704 36,299.5C 34.0548,294.529 32.0548,289.529 30,284.5C 29.3292,283.748 28.4959,283.414 27.5,283.5C 24.0288,279.606 22.1955,274.939 22,269.5C 20.5187,268.529 19.6854,267.196 19.5,265.5C 14.736,249.743 11.0693,233.743 8.5,217.5C 8.5,207.5 8.5,197.5 8.5,187.5C 10.1238,187.64 11.2904,186.973 12,185.5C 12.1684,177.479 12.6684,169.479 13.5,161.5C 15.1307,159.941 15.964,157.941 16,155.5C 16.4983,152.183 16.665,148.85 16.5,145.5C 18.4984,137.325 20.9984,129.325 24,121.5C 28.2192,115.14 31.7192,108.474 34.5,101.5C 34.5,101.167 34.5,100.833 34.5,100.5C 36.1288,99.3747 37.6288,98.0414 39,96.5C 41.0711,93.4118 42.7378,90.0785 44,86.5C 47.3487,84.147 50.3487,81.4804 53,78.5C 54.0086,76.9751 54.5086,75.3084 54.5,73.5C 56.1667,72.5 57.5,71.1667 58.5,69.5C 59.5,69.5 60.5,69.5 61.5,69.5C 61.5,68.1667 61.5,66.8333 61.5,65.5C 63.1667,65.5 64.8333,65.5 66.5,65.5C 66.5,64.5 66.5,63.5 66.5,62.5C 69.5,62.8333 70.8333,61.5 70.5,58.5C 73.5,58.8333 74.8333,57.5 74.5,54.5C 79.271,51.9554 83.9376,49.1221 88.5,46C 89.3366,44.9887 89.67,43.8221 89.5,42.5C 91.9742,40.7601 94.6409,39.2601 97.5,38C 98.7101,36.9609 99.7101,35.7942 100.5,34.5C 100.833,34.5 101.167,34.5 101.5,34.5C 105.854,32.0977 110.187,29.5977 114.5,27C 119.198,24.545 124.198,22.8783 129.5,22C 130.955,20.3743 132.622,19.2076 134.5,18.5C 134.833,18.5 135.167,18.5 135.5,18.5C 140.352,17.0213 145.352,16.0213 150.5,15.5C 159.469,13.1039 168.802,11.6039 178.5,11C 180.611,10.1553 182.611,9.32198 184.5,8.5 Z"/></g>
<g><path style="opacity:0.973" fill="#6f6f6f" d="M 223.5,8.5 C 226.167,8.5 228.833,8.5 231.5,8.5C 233.751,9.01489 235.751,10.0149 237.5,11.5C 233.103,11.5754 228.77,11.0754 224.5,10C 223.944,9.61742 223.611,9.11742 223.5,8.5 Z"/></g>
<g><path style="opacity:0.953" fill="#aeaeae" d="M 231.5,8.5 C 237.84,8.84902 244.173,9.34902 250.5,10C 256.022,12.5928 261.355,15.4261 266.5,18.5C 262.879,18.2916 259.546,17.2916 256.5,15.5C 255.167,15.5 253.833,15.5 252.5,15.5C 248.573,12.0731 243.906,10.7397 238.5,11.5C 238.167,11.5 237.833,11.5 237.5,11.5C 235.751,10.0149 233.751,9.01489 231.5,8.5 Z"/></g>
<g><path style="opacity:0.996" fill="#292929" d="M 171.5,8.5 C 175.833,8.5 180.167,8.5 184.5,8.5C 182.611,9.32198 180.611,10.1553 178.5,11C 168.802,11.6039 159.469,13.1039 150.5,15.5C 153.404,14.7148 156.07,13.3815 158.5,11.5C 163.071,11.0231 167.404,10.0231 171.5,8.5 Z"/></g>
<g><path style="opacity:0.988" fill="#4c4c4c" d="M 238.5,11.5 C 243.906,10.7397 248.573,12.0731 252.5,15.5C 247.189,15.9466 242.522,14.6133 238.5,11.5 Z"/></g>
<g><path style="opacity:0.965" fill="#9c9c9c" d="M 171.5,8.5 C 167.404,10.0231 163.071,11.0231 158.5,11.5C 153.271,12.9729 147.937,14.1396 142.5,15C 140.006,16.0317 137.672,17.1983 135.5,18.5C 135.167,18.5 134.833,18.5 134.5,18.5C 132.435,18.5172 130.435,18.8505 128.5,19.5C 128.611,18.8826 128.944,18.3826 129.5,18C 135.321,16.2723 140.988,14.439 146.5,12.5C 148.372,11.4886 150.372,10.6552 152.5,10C 158.827,9.34902 165.16,8.84902 171.5,8.5 Z"/></g>
<g><path style="opacity:0.998" fill="#1e1e1e" d="M 213.5,8.5 C 216.833,8.5 220.167,8.5 223.5,8.5C 223.611,9.11742 223.944,9.61742 224.5,10C 228.77,11.0754 233.103,11.5754 237.5,11.5C 237.833,11.5 238.167,11.5 238.5,11.5C 242.522,14.6133 247.189,15.9466 252.5,15.5C 253.833,15.5 255.167,15.5 256.5,15.5C 257.141,16.4822 257.807,17.4822 258.5,18.5C 261.428,19.4841 264.428,19.8174 267.5,19.5C 268.672,21.539 270.338,22.8724 272.5,23.5C 270.143,23.6633 267.81,23.4966 265.5,23C 261.135,21.2457 256.801,19.4123 252.5,17.5C 248.878,16.6747 245.211,16.1747 241.5,16C 234.378,12.5993 226.711,10.9326 218.5,11C 216.347,10.9005 214.681,10.0672 213.5,8.5 Z"/></g>
<g><path style="opacity:0.988" fill="#525252" d="M 158.5,11.5 C 156.07,13.3815 153.404,14.7148 150.5,15.5C 145.352,16.0213 140.352,17.0213 135.5,18.5C 137.672,17.1983 140.006,16.0317 142.5,15C 147.937,14.1396 153.271,12.9729 158.5,11.5 Z"/></g>
<g><path style="opacity:0.98" fill="#545454" d="M 256.5,15.5 C 259.546,17.2916 262.879,18.2916 266.5,18.5C 266.833,18.5 267.167,18.5 267.5,18.5C 267.5,18.8333 267.5,19.1667 267.5,19.5C 264.428,19.8174 261.428,19.4841 258.5,18.5C 257.807,17.4822 257.141,16.4822 256.5,15.5 Z"/></g>
<g><path style="opacity:0.945" fill="#d8d8d8" d="M 146.5,12.5 C 140.988,14.439 135.321,16.2723 129.5,18C 128.944,18.3826 128.611,18.8826 128.5,19.5C 118.108,22.3084 109.108,27.3084 101.5,34.5C 101.167,34.5 100.833,34.5 100.5,34.5C 98.6854,35.6298 96.6854,36.2964 94.5,36.5C 95.2795,33.4469 97.2795,31.7803 100.5,31.5C 101.386,30.675 101.719,29.675 101.5,28.5C 103.167,28.5 104.833,28.5 106.5,28.5C 106.33,27.1779 106.663,26.0113 107.5,25C 109.833,24.6667 112.167,24.3333 114.5,24C 115.337,22.9887 115.67,21.8221 115.5,20.5C 121.15,18.2998 127.15,16.9665 133.5,16.5C 133.36,14.8762 134.027,13.7096 135.5,13C 139.152,12.5014 142.818,12.3347 146.5,12.5 Z"/></g>
<g><path style="opacity:0.961" fill="#9a9a9a" d="M 267.5,19.5 C 267.5,19.1667 267.5,18.8333 267.5,18.5C 271.358,18.7701 274.691,20.1034 277.5,22.5C 273.879,22.2916 270.546,21.2916 267.5,19.5 Z"/></g>
<g><path style="opacity:0.98" fill="#545454" d="M 267.5,19.5 C 270.546,21.2916 273.879,22.2916 277.5,22.5C 278.672,24.539 280.338,25.8724 282.5,26.5C 279.167,25.5 275.833,24.5 272.5,23.5C 270.338,22.8724 268.672,21.539 267.5,19.5 Z"/></g>
<g><path style="opacity:0.976" fill="#787878" d="M 134.5,18.5 C 132.622,19.2076 130.955,20.3743 129.5,22C 124.198,22.8783 119.198,24.545 114.5,27C 110.187,29.5977 105.854,32.0977 101.5,34.5C 109.108,27.3084 118.108,22.3084 128.5,19.5C 130.435,18.8505 132.435,18.5172 134.5,18.5 Z"/></g>
<g><path style="opacity:0.949" fill="#bebebe" d="M 277.5,22.5 C 281.305,23.835 285.305,24.6683 289.5,25C 290.996,27.8276 293.329,29.4943 296.5,30C 297.252,30.6708 297.586,31.5041 297.5,32.5C 296.609,31.8902 295.609,31.5569 294.5,31.5C 291.484,30.6569 288.817,29.1569 286.5,27C 285.207,26.51 283.873,26.3433 282.5,26.5C 280.338,25.8724 278.672,24.539 277.5,22.5 Z"/></g>
<g><path style="opacity:0.965" fill="#7e7e7e" d="M 294.5,31.5 C 295.609,31.5569 296.609,31.8902 297.5,32.5C 302.555,35.3118 307.555,38.3118 312.5,41.5C 314.833,44.1667 317.167,46.8333 319.5,49.5C 315.394,46.5711 311.394,43.4044 307.5,40C 304.832,39.433 302.166,38.933 299.5,38.5C 299.737,37.209 299.404,36.209 298.5,35.5C 296.861,34.5275 295.527,33.1942 294.5,31.5 Z"/></g>
<g><path style="opacity:0.988" fill="#444444" d="M 282.5,26.5 C 283.873,26.3433 285.207,26.51 286.5,27C 288.817,29.1569 291.484,30.6569 294.5,31.5C 295.527,33.1942 296.861,34.5275 298.5,35.5C 296.345,35.628 294.345,35.128 292.5,34C 288.626,32.1604 285.293,29.6604 282.5,26.5 Z"/></g>
<g><path style="opacity:0.957" fill="#c7c7c7" d="M 88.5,40.5 C 85.2635,43.7971 81.5969,46.6304 77.5,49C 76.7476,49.6708 76.4142,50.5041 76.5,51.5C 75.8333,51.5 75.1667,51.5 74.5,51.5C 76.102,49.0085 77.7687,46.5085 79.5,44C 82.2873,42.2268 85.2873,41.0601 88.5,40.5 Z"/></g>
<g><path style="opacity:1" fill="#5b5b5b" d="M 188.5,41.5 C 188.83,60.3408 188.497,79.0075 187.5,97.5C 187.5,79.1667 187.5,60.8333 187.5,42.5C 185.585,42.2155 183.919,42.5489 182.5,43.5C 181.662,43.8417 181.328,44.5084 181.5,45.5C 175.095,52.2422 168.095,58.2422 160.5,63.5C 160.5,62.5 160.5,61.5 160.5,60.5C 163.5,60.8333 164.833,59.5 164.5,56.5C 169.777,53.739 174.61,50.0724 179,45.5C 179.117,41.3846 181.284,39.3846 185.5,39.5C 187.038,39.4534 188.038,40.1201 188.5,41.5 Z"/></g>
<g><path style="opacity:1" fill="#2f2f2f" d="M 188.5,41.5 C 189.166,50.8274 189.5,60.3274 189.5,70C 189.62,80.8885 189.12,91.7218 188,102.5C 184.259,107.912 180.926,113.579 178,119.5C 174.714,123.171 170.881,125.837 166.5,127.5C 168.189,125.672 170.189,124.172 172.5,123C 173.305,121.887 173.972,120.721 174.5,119.5C 175.11,118.609 175.443,117.609 175.5,116.5C 177.807,115.023 179.64,113.023 181,110.5C 182.706,105.844 184.873,101.51 187.5,97.5C 188.497,79.0075 188.83,60.3408 188.5,41.5 Z"/></g>
<g><path style="opacity:0.973" fill="#7b7b7b" d="M 100.5,34.5 C 99.7101,35.7942 98.7101,36.9609 97.5,38C 94.6409,39.2601 91.9742,40.7601 89.5,42.5C 84.9924,45.2533 80.6591,48.2533 76.5,51.5C 76.4142,50.5041 76.7476,49.6708 77.5,49C 81.5969,46.6304 85.2635,43.7971 88.5,40.5C 90.4966,39.1925 92.4966,37.8592 94.5,36.5C 96.6854,36.2964 98.6854,35.6298 100.5,34.5 Z"/></g>
<g><path style="opacity:1" fill="#7c7c7c" d="M 213.5,45.5 C 218.474,50.1387 223.474,54.8053 228.5,59.5C 232.897,63.8918 236.897,68.5584 240.5,73.5C 238.24,72.8611 236.24,71.6945 234.5,70C 231.694,67.1937 228.86,64.3604 226,61.5C 225.517,60.552 225.351,59.552 225.5,58.5C 223.473,58.3379 221.473,58.5045 219.5,59C 221.155,60.4443 221.822,62.2776 221.5,64.5C 218.254,64.8649 215.588,63.8649 213.5,61.5C 210.146,73.3442 209.146,85.3442 210.5,97.5C 209.883,97.3893 209.383,97.056 209,96.5C 208.167,78.8239 208.334,61.1572 209.5,43.5C 210.622,44.6302 211.956,45.2969 213.5,45.5 Z"/></g>
<g><path style="opacity:0.957" fill="#bebebe" d="M 74.5,51.5 C 69.8206,55.1804 65.8206,59.5138 62.5,64.5C 61.2223,64.7822 60.2223,65.4489 59.5,66.5C 59.8333,64.5 60.1667,62.5 60.5,60.5C 64.812,58.7105 68.4786,55.8772 71.5,52C 72.448,51.5172 73.448,51.3505 74.5,51.5 Z"/></g>
<g><path style="opacity:0.988" fill="#5e5e5e" d="M 74.5,51.5 C 75.1667,51.5 75.8333,51.5 76.5,51.5C 74.7451,52.9618 73.4118,54.7951 72.5,57C 71.552,57.4828 70.552,57.6495 69.5,57.5C 69.6495,58.552 69.4828,59.552 69,60.5C 66.6608,61.7301 64.4942,63.0634 62.5,64.5C 65.8206,59.5138 69.8206,55.1804 74.5,51.5 Z"/></g>
<g><path style="opacity:0.969" fill="#7b7b7b" d="M 321.5,50.5 C 328.784,54.7832 334.784,60.4498 339.5,67.5C 336.167,64.5 332.833,61.5 329.5,58.5C 327.648,55.7114 325.148,53.7114 322,52.5C 321.536,51.9056 321.369,51.2389 321.5,50.5 Z"/></g>
<g><path style="opacity:1" fill="#a7a7a7" d="M 182.5,43.5 C 183.833,43.5 185.167,43.5 186.5,43.5C 186.667,59.1702 186.5,74.8369 186,90.5C 185.814,93.0356 185.314,95.369 184.5,97.5C 184.5,80.1667 184.5,62.8333 184.5,45.5C 183.5,45.5 182.5,45.5 181.5,45.5C 181.328,44.5084 181.662,43.8417 182.5,43.5 Z"/></g>
<g><path style="opacity:1" fill="#828282" d="M 182.5,43.5 C 183.919,42.5489 185.585,42.2155 187.5,42.5C 187.5,60.8333 187.5,79.1667 187.5,97.5C 184.873,101.51 182.706,105.844 181,110.5C 179.64,113.023 177.807,115.023 175.5,116.5C 175.519,114.94 175.852,113.44 176.5,112C 181.121,108.22 183.788,103.387 184.5,97.5C 185.314,95.369 185.814,93.0356 186,90.5C 186.5,74.8369 186.667,59.1702 186.5,43.5C 185.167,43.5 183.833,43.5 182.5,43.5 Z"/></g>
<g><path style="opacity:1" fill="#2a2a2a" d="M 89.5,42.5 C 89.67,43.8221 89.3366,44.9887 88.5,46C 83.9376,49.1221 79.271,51.9554 74.5,54.5C 74.8333,57.5 73.5,58.8333 70.5,58.5C 70.8333,61.5 69.5,62.8333 66.5,62.5C 66.5,63.5 66.5,64.5 66.5,65.5C 64.8333,65.5 63.1667,65.5 61.5,65.5C 61.5,66.8333 61.5,68.1667 61.5,69.5C 60.5,69.5 59.5,69.5 58.5,69.5C 58.5,69.1667 58.5,68.8333 58.5,68.5C 58.8333,67.8333 59.1667,67.1667 59.5,66.5C 60.2223,65.4489 61.2223,64.7822 62.5,64.5C 64.4942,63.0634 66.6608,61.7301 69,60.5C 69.4828,59.552 69.6495,58.552 69.5,57.5C 70.552,57.6495 71.552,57.4828 72.5,57C 73.4118,54.7951 74.7451,52.9618 76.5,51.5C 80.6591,48.2533 84.9924,45.2533 89.5,42.5 Z"/></g>
<g><path style="opacity:1" fill="#363636" d="M 212.5,43.5 C 210.958,42.6993 209.292,42.366 207.5,42.5C 207.333,61.1696 207.5,79.8363 208,98.5C 208.608,100.154 209.108,101.821 209.5,103.5C 208.504,103.586 207.671,103.252 207,102.5C 206.333,82.1667 206.333,61.8333 207,41.5C 209.811,39.8203 211.644,40.4869 212.5,43.5 Z"/></g>
<g><path style="opacity:1" fill="#191919" d="M 228.5,59.5 C 230.262,59.3573 231.929,59.6906 233.5,60.5C 239.877,67.7108 246.71,74.3775 254,80.5C 255.128,82.3453 255.628,84.3453 255.5,86.5C 250.795,81.7932 245.795,77.4599 240.5,73.5C 236.897,68.5584 232.897,63.8918 228.5,59.5 Z"/></g>
<g><path style="opacity:1" fill="#f2f2f2" d="M 181.5,46.5 C 182.831,53.803 183.498,61.4697 183.5,69.5C 183.398,79.5152 183.065,89.5152 182.5,99.5C 180.876,99.6399 179.71,98.9733 179,97.5C 178.667,93.5 178.333,89.5 178,85.5C 177.667,88.8333 177.333,92.1667 177,95.5C 174.931,96.2638 172.764,96.7638 170.5,97C 168.167,101.667 165.833,101.667 163.5,97C 159.543,97.3961 156.71,95.8961 155,92.5C 154.691,93.7659 154.191,94.9326 153.5,96C 151.19,96.4966 148.857,96.6633 146.5,96.5C 146.824,99.6802 145.49,100.847 142.5,100C 141.594,98.3005 141.261,96.4672 141.5,94.5C 143.355,94.728 144.188,94.0613 144,92.5C 142.644,93.3802 141.144,93.7135 139.5,93.5C 137.011,99.057 135.678,98.7237 135.5,92.5C 137.248,90.4048 139.415,88.7382 142,87.5C 142.483,86.552 142.649,85.552 142.5,84.5C 143.552,84.6495 144.552,84.4828 145.5,84C 146.637,81.5428 148.137,79.3762 150,77.5C 157.167,71.6667 163.667,65.1667 169.5,58C 173.891,54.7799 177.891,50.9466 181.5,46.5 Z"/></g>
<g><path style="opacity:1" fill="#929292" d="M 240.5,73.5 C 245.795,77.4599 250.795,81.7932 255.5,86.5C 258.137,89.7244 260.803,93.0578 263.5,96.5C 261.303,95.1554 258.97,93.9888 256.5,93C 255.663,91.9887 255.33,90.8221 255.5,89.5C 254.5,89.5 253.5,89.5 252.5,89.5C 252.731,86.2155 251.397,83.7155 248.5,82C 244.914,81.5333 241.914,80.0333 239.5,77.5C 237.446,79.2599 235.446,81.0933 233.5,83C 229.174,84.6152 224.84,86.2819 220.5,88C 219.333,89.1667 218.167,90.3333 217,91.5C 215.981,90.3128 214.814,89.3128 213.5,88.5C 212.167,94.5 212.167,100.5 213.5,106.5C 215.854,108.246 216.854,110.579 216.5,113.5C 215.631,111.117 214.131,109.117 212,107.5C 211.39,104.173 210.89,100.839 210.5,97.5C 209.146,85.3442 210.146,73.3442 213.5,61.5C 215.588,63.8649 218.254,64.8649 221.5,64.5C 221.822,62.2776 221.155,60.4443 219.5,59C 221.473,58.5045 223.473,58.3379 225.5,58.5C 225.351,59.552 225.517,60.552 226,61.5C 228.86,64.3604 231.694,67.1937 234.5,70C 236.24,71.6945 238.24,72.8611 240.5,73.5 Z"/></g>
<g><path style="opacity:0.953" fill="#c2c2c2" d="M 312.5,41.5 C 315.899,43.3883 318.899,45.8883 321.5,49C 325.754,50.9251 329.754,53.2585 333.5,56C 335.037,57.1096 335.703,58.6096 335.5,60.5C 338.388,60.2196 339.888,61.5529 340,64.5C 344.336,66.9884 346.836,70.6551 347.5,75.5C 345.124,74.2739 343.624,72.2739 343,69.5C 342.184,68.1772 341.017,67.5106 339.5,67.5C 334.784,60.4498 328.784,54.7832 321.5,50.5C 320.508,50.6716 319.842,50.3382 319.5,49.5C 317.167,46.8333 314.833,44.1667 312.5,41.5 Z"/></g>
<g><path style="opacity:0.996" fill="#2b2b2b" d="M 329.5,58.5 C 332.833,61.5 336.167,64.5 339.5,67.5C 341.017,67.5106 342.184,68.1772 343,69.5C 343.624,72.2739 345.124,74.2739 347.5,75.5C 348.512,76.8717 349.512,78.205 350.5,79.5C 350.5,80.1667 350.5,80.8333 350.5,81.5C 346.921,81.0894 344.754,79.0894 344,75.5C 341.444,74.7809 340.277,73.1142 340.5,70.5C 337.5,70.8333 336.167,69.5 336.5,66.5C 333.5,66.8333 332.167,65.5 332.5,62.5C 331.5,62.5 330.5,62.5 329.5,62.5C 329.5,61.1667 329.5,59.8333 329.5,58.5 Z"/></g>
<g><path style="opacity:0.961" fill="#acacac" d="M 58.5,68.5 C 58.5,68.8333 58.5,69.1667 58.5,69.5C 57.5,71.1667 56.1667,72.5 54.5,73.5C 50.8427,77.6575 47.0094,81.6575 43,85.5C 39.8781,90.4259 37.0448,95.4259 34.5,100.5C 34.5,100.833 34.5,101.167 34.5,101.5C 33.8333,101.5 33.1667,101.5 32.5,101.5C 35.3272,97.7585 37.1605,93.4251 38,88.5C 42.4457,84.3879 46.279,79.8879 49.5,75C 52.5489,72.8177 55.5489,70.651 58.5,68.5 Z"/></g>
<g><path style="opacity:0.973" fill="#676767" d="M 350.5,79.5 C 351.794,80.2899 352.961,81.2899 354,82.5C 357.356,88.6641 360.856,94.6641 364.5,100.5C 363.167,99.5 361.833,98.5 360.5,97.5C 359.612,94.757 358.445,92.0904 357,89.5C 354.17,87.1902 352.003,84.5235 350.5,81.5C 350.5,80.8333 350.5,80.1667 350.5,79.5 Z"/></g>
<g><path style="opacity:1" fill="#1c1c1c" d="M 255.5,86.5 C 257.262,86.3573 258.929,86.6906 260.5,87.5C 265.581,93.2267 271.081,98.56 277,103.5C 278.128,105.345 278.628,107.345 278.5,109.5C 275.124,106.122 271.457,103.122 267.5,100.5C 266.5,98.8333 265.167,97.5 263.5,96.5C 260.803,93.0578 258.137,89.7244 255.5,86.5 Z"/></g>
<g><path style="opacity:1" fill="#a7a7a7" d="M 263.5,96.5 C 265.167,97.5 266.5,98.8333 267.5,100.5C 267.5,100.833 267.5,101.167 267.5,101.5C 263.844,100.339 260.511,98.6722 257.5,96.5C 257.5,97.5 257.5,98.5 257.5,99.5C 255.278,99.178 253.444,99.8446 252,101.5C 251.51,100.207 251.343,98.8734 251.5,97.5C 250.167,97.5 248.833,97.5 247.5,97.5C 247.5,98.8333 247.5,100.167 247.5,101.5C 246.167,101.5 244.833,101.5 243.5,101.5C 243.5,102.833 243.5,104.167 243.5,105.5C 241.167,105.5 238.833,105.5 236.5,105.5C 236.5,106.5 236.5,107.5 236.5,108.5C 233.833,108.5 231.167,108.5 228.5,108.5C 228.5,109.833 228.5,111.167 228.5,112.5C 225.833,112.5 223.167,112.5 220.5,112.5C 220.287,115.451 220.954,118.118 222.5,120.5C 220.499,118.121 218.499,115.788 216.5,113.5C 216.854,110.579 215.854,108.246 213.5,106.5C 212.167,100.5 212.167,94.5 213.5,88.5C 214.814,89.3128 215.981,90.3128 217,91.5C 218.167,90.3333 219.333,89.1667 220.5,88C 224.84,86.2819 229.174,84.6152 233.5,83C 235.446,81.0933 237.446,79.2599 239.5,77.5C 241.914,80.0333 244.914,81.5333 248.5,82C 251.397,83.7155 252.731,86.2155 252.5,89.5C 253.5,89.5 254.5,89.5 255.5,89.5C 255.33,90.8221 255.663,91.9887 256.5,93C 258.97,93.9888 261.303,95.1554 263.5,96.5 Z"/></g>
<g><path style="opacity:0.984" fill="#5a5a5a" d="M 54.5,73.5 C 54.5086,75.3084 54.0086,76.9751 53,78.5C 50.3487,81.4804 47.3487,84.147 44,86.5C 42.7378,90.0785 41.0711,93.4118 39,96.5C 37.6288,98.0414 36.1288,99.3747 34.5,100.5C 37.0448,95.4259 39.8781,90.4259 43,85.5C 47.0094,81.6575 50.8427,77.6575 54.5,73.5 Z"/></g>
<g><path style="opacity:0.945" fill="#d1d1d1" d="M 347.5,75.5 C 350.076,76.1069 352.409,77.2736 354.5,79C 355.38,80.3561 355.714,81.8561 355.5,83.5C 356.5,83.5 357.5,83.5 358.5,83.5C 358.5,84.5 358.5,85.5 358.5,86.5C 359.822,86.33 360.989,86.6634 362,87.5C 362.977,89.74 363.477,92.0733 363.5,94.5C 364.5,94.5 365.5,94.5 366.5,94.5C 366.5,96.8333 366.5,99.1667 366.5,101.5C 365.833,101.167 365.167,100.833 364.5,100.5C 360.856,94.6641 357.356,88.6641 354,82.5C 352.961,81.2899 351.794,80.2899 350.5,79.5C 349.512,78.205 348.512,76.8717 347.5,75.5 Z"/></g>
<g><path style="opacity:1" fill="#a8a8a8" d="M 181.5,45.5 C 181.5,45.8333 181.5,46.1667 181.5,46.5C 177.891,50.9466 173.891,54.7799 169.5,58C 163.667,65.1667 157.167,71.6667 150,77.5C 148.137,79.3762 146.637,81.5428 145.5,84C 144.552,84.4828 143.552,84.6495 142.5,84.5C 142.649,85.552 142.483,86.552 142,87.5C 139.415,88.7382 137.248,90.4048 135.5,92.5C 130.996,97.171 126.663,102.004 122.5,107C 121.552,107.483 120.552,107.649 119.5,107.5C 119.649,108.552 119.483,109.552 119,110.5C 117.23,112.742 115.063,114.408 112.5,115.5C 112.703,113.956 113.37,112.622 114.5,111.5C 125.684,100.414 136.85,89.414 148,78.5C 151.049,74.9574 153.882,71.2907 156.5,67.5C 158.194,66.4726 159.527,65.1392 160.5,63.5C 168.095,58.2422 175.095,52.2422 181.5,45.5 Z"/></g>
<g><path style="opacity:1" fill="#323232" d="M 360.5,97.5 C 361.833,98.5 363.167,99.5 364.5,100.5C 365.167,100.833 365.833,101.167 366.5,101.5C 366.5,101.833 366.5,102.167 366.5,102.5C 368.055,105.94 369.888,109.273 372,112.5C 372.977,114.74 373.477,117.073 373.5,119.5C 372.596,118.791 372.263,117.791 372.5,116.5C 370.856,116.714 369.356,116.38 368,115.5C 367.503,113.19 367.337,110.857 367.5,108.5C 366.178,108.67 365.011,108.337 364,107.5C 363.505,105.527 363.338,103.527 363.5,101.5C 362.5,101.5 361.5,101.5 360.5,101.5C 360.5,100.167 360.5,98.8333 360.5,97.5 Z"/></g>
<g><path style="opacity:1" fill="#b4b4b4" d="M 267.5,101.5 C 270.021,103.701 272.521,106.034 275,108.5C 275.49,109.793 275.657,111.127 275.5,112.5C 273.198,111.14 271.532,111.807 270.5,114.5C 269.335,113.509 268.168,112.509 267,111.5C 265.148,113.886 262.648,115.053 259.5,115C 256.984,117.683 254.317,120.183 251.5,122.5C 250.335,121.509 249.168,120.509 248,119.5C 244.036,122.79 240.036,126.123 236,129.5C 235.517,130.448 235.351,131.448 235.5,132.5C 238.5,132.167 239.833,133.5 239.5,136.5C 243.068,136.759 244.401,138.759 243.5,142.5C 235.801,135.801 228.801,128.468 222.5,120.5C 220.954,118.118 220.287,115.451 220.5,112.5C 223.167,112.5 225.833,112.5 228.5,112.5C 228.5,111.167 228.5,109.833 228.5,108.5C 231.167,108.5 233.833,108.5 236.5,108.5C 236.5,107.5 236.5,106.5 236.5,105.5C 238.833,105.5 241.167,105.5 243.5,105.5C 243.5,104.167 243.5,102.833 243.5,101.5C 244.833,101.5 246.167,101.5 247.5,101.5C 247.5,100.167 247.5,98.8333 247.5,97.5C 248.833,97.5 250.167,97.5 251.5,97.5C 251.343,98.8734 251.51,100.207 252,101.5C 253.444,99.8446 255.278,99.178 257.5,99.5C 257.5,98.5 257.5,97.5 257.5,96.5C 260.511,98.6722 263.844,100.339 267.5,101.5 Z"/></g>
<g><path style="opacity:1" fill="#e4e4e4" d="M 181.5,46.5 C 181.5,46.1667 181.5,45.8333 181.5,45.5C 182.5,45.5 183.5,45.5 184.5,45.5C 184.5,62.8333 184.5,80.1667 184.5,97.5C 183.788,103.387 181.121,108.22 176.5,112C 175.852,113.44 175.519,114.94 175.5,116.5C 175.443,117.609 175.11,118.609 174.5,119.5C 170.21,121.756 166.544,124.756 163.5,128.5C 161.194,128.993 158.861,129.326 156.5,129.5C 156.5,130.833 156.5,132.167 156.5,133.5C 155.167,133.5 153.833,133.5 152.5,133.5C 152.778,135.346 152.111,136.68 150.5,137.5C 149.548,135.955 149.215,134.288 149.5,132.5C 147.5,132.5 145.5,132.5 143.5,132.5C 143.5,133.5 143.5,134.5 143.5,135.5C 142.167,135.5 140.833,135.5 139.5,135.5C 139.5,136.833 139.5,138.167 139.5,139.5C 138.5,139.5 137.5,139.5 136.5,139.5C 136.5,138.167 136.5,136.833 136.5,135.5C 127.5,135.5 118.5,135.5 109.5,135.5C 109.663,133.143 109.497,130.81 109,128.5C 107.951,130.107 106.451,130.773 104.5,130.5C 105.785,127.526 107.118,124.526 108.5,121.5C 108.622,118.708 109.956,116.708 112.5,115.5C 115.063,114.408 117.23,112.742 119,110.5C 119.483,109.552 119.649,108.552 119.5,107.5C 120.552,107.649 121.552,107.483 122.5,107C 126.663,102.004 130.996,97.171 135.5,92.5C 135.678,98.7237 137.011,99.057 139.5,93.5C 141.144,93.7135 142.644,93.3802 144,92.5C 144.188,94.0613 143.355,94.728 141.5,94.5C 141.261,96.4672 141.594,98.3005 142.5,100C 145.49,100.847 146.824,99.6802 146.5,96.5C 148.857,96.6633 151.19,96.4966 153.5,96C 154.191,94.9326 154.691,93.7659 155,92.5C 156.71,95.8961 159.543,97.3961 163.5,97C 165.833,101.667 168.167,101.667 170.5,97C 172.764,96.7638 174.931,96.2638 177,95.5C 177.333,92.1667 177.667,88.8333 178,85.5C 178.333,89.5 178.667,93.5 179,97.5C 179.71,98.9733 180.876,99.6399 182.5,99.5C 183.065,89.5152 183.398,79.5152 183.5,69.5C 183.498,61.4697 182.831,53.803 181.5,46.5 Z"/></g>
<g><path style="opacity:1" fill="#5d5d5d" d="M 156.5,67.5 C 153.882,71.2907 151.049,74.9574 148,78.5C 136.85,89.414 125.684,100.414 114.5,111.5C 113.37,112.622 112.703,113.956 112.5,115.5C 109.956,116.708 108.622,118.708 108.5,121.5C 107.128,122.512 105.795,123.512 104.5,124.5C 100.681,128.167 97.3473,132.167 94.5,136.5C 94.3433,135.127 94.51,133.793 95,132.5C 97.1058,130.623 98.4391,128.29 99,125.5C 100.011,124.663 101.178,124.33 102.5,124.5C 102.491,122.692 102.991,121.025 104,119.5C 112.61,111.892 120.944,103.892 129,95.5C 128.771,92.1897 130.271,90.3563 133.5,90C 135.413,88.2089 137.08,86.2089 138.5,84C 140.587,83.2078 142.421,82.0412 144,80.5C 147.548,76.6196 150.714,72.4529 153.5,68C 154.448,67.5172 155.448,67.3505 156.5,67.5 Z"/></g>
<g><path style="opacity:0.945" fill="#d8d8d8" d="M 366.5,102.5 C 368.6,104.596 371.1,106.263 374,107.5C 374.495,109.473 374.662,111.473 374.5,113.5C 376.124,113.36 377.29,114.027 378,115.5C 380.689,121.085 382.189,127.085 382.5,133.5C 384.124,133.36 385.29,134.027 386,135.5C 386.753,141.457 387.919,147.124 389.5,152.5C 388.589,150.249 387.256,148.249 385.5,146.5C 383.473,137.749 380.473,129.415 376.5,121.5C 375.5,120.833 374.5,120.167 373.5,119.5C 373.477,117.073 372.977,114.74 372,112.5C 369.888,109.273 368.055,105.94 366.5,102.5 Z"/></g>
<g><path style="opacity:1" fill="#636363" d="M 267.5,100.5 C 271.457,103.122 275.124,106.122 278.5,109.5C 279.209,110.404 280.209,110.737 281.5,110.5C 281.281,111.675 281.614,112.675 282.5,113.5C 287.361,116.69 290.694,121.023 292.5,126.5C 288.37,121.869 284.037,117.369 279.5,113C 278.207,112.51 276.873,112.343 275.5,112.5C 275.657,111.127 275.49,109.793 275,108.5C 272.521,106.034 270.021,103.701 267.5,101.5C 267.5,101.167 267.5,100.833 267.5,100.5 Z"/></g>
<g><path style="opacity:1" fill="#bfbfbf" d="M 275.5,112.5 C 276.873,112.343 278.207,112.51 279.5,113C 284.037,117.369 288.37,121.869 292.5,126.5C 294.564,129.776 296.731,133.109 299,136.5C 299.119,139.995 300.285,142.995 302.5,145.5C 300.132,143.799 298.132,141.799 296.5,139.5C 294.975,135.484 293.141,131.484 291,127.5C 288.858,125.173 286.358,123.507 283.5,122.5C 283.5,121.5 283.5,120.5 283.5,119.5C 282.5,119.5 281.5,119.5 280.5,119.5C 281.061,121.908 281.561,124.241 282,126.5C 280.981,125.313 279.814,124.313 278.5,123.5C 276.208,125.657 273.875,127.824 271.5,130C 268.5,130.333 265.5,130.667 262.5,131C 259.847,134.997 256.18,137.331 251.5,138C 248.756,139.324 247.423,141.491 247.5,144.5C 246.395,143.4 245.062,142.733 243.5,142.5C 244.401,138.759 243.068,136.759 239.5,136.5C 239.833,133.5 238.5,132.167 235.5,132.5C 235.351,131.448 235.517,130.448 236,129.5C 240.036,126.123 244.036,122.79 248,119.5C 249.168,120.509 250.335,121.509 251.5,122.5C 254.317,120.183 256.984,117.683 259.5,115C 262.648,115.053 265.148,113.886 267,111.5C 268.168,112.509 269.335,113.509 270.5,114.5C 271.532,111.807 273.198,111.14 275.5,112.5 Z"/></g>
<g><path style="opacity:1" fill="#d0d0d0" d="M 296.5,139.5 C 295.735,142.096 295.401,144.763 295.5,147.5C 289.833,147.5 284.167,147.5 278.5,147.5C 278.5,148.833 278.5,150.167 278.5,151.5C 277.167,151.5 275.833,151.5 274.5,151.5C 274.5,152.833 274.5,154.167 274.5,155.5C 271.833,155.5 269.167,155.5 266.5,155.5C 266.5,156.833 266.5,158.167 266.5,159.5C 265.167,159.5 263.833,159.5 262.5,159.5C 262.5,161.5 262.5,163.5 262.5,165.5C 261.527,163.861 260.194,162.527 258.5,161.5C 257.337,157.65 255.67,153.983 253.5,150.5C 251.051,148.923 249.051,146.923 247.5,144.5C 247.423,141.491 248.756,139.324 251.5,138C 256.18,137.331 259.847,134.997 262.5,131C 265.5,130.667 268.5,130.333 271.5,130C 273.875,127.824 276.208,125.657 278.5,123.5C 279.814,124.313 280.981,125.313 282,126.5C 281.561,124.241 281.061,121.908 280.5,119.5C 281.5,119.5 282.5,119.5 283.5,119.5C 283.5,120.5 283.5,121.5 283.5,122.5C 286.358,123.507 288.858,125.173 291,127.5C 293.141,131.484 294.975,135.484 296.5,139.5 Z"/></g>
<g><path style="opacity:1" fill="#dbdbdb" d="M 108.5,121.5 C 107.118,124.526 105.785,127.526 104.5,130.5C 106.451,130.773 107.951,130.107 109,128.5C 109.497,130.81 109.663,133.143 109.5,135.5C 118.5,135.5 127.5,135.5 136.5,135.5C 136.5,136.833 136.5,138.167 136.5,139.5C 137.5,139.5 138.5,139.5 139.5,139.5C 139.5,138.167 139.5,136.833 139.5,135.5C 140.833,135.5 142.167,135.5 143.5,135.5C 143.5,134.5 143.5,133.5 143.5,132.5C 145.5,132.5 147.5,132.5 149.5,132.5C 149.215,134.288 149.548,135.955 150.5,137.5C 152.111,136.68 152.778,135.346 152.5,133.5C 153.833,133.5 155.167,133.5 156.5,133.5C 156.5,132.167 156.5,130.833 156.5,129.5C 158.861,129.326 161.194,128.993 163.5,128.5C 159.139,132.195 155.139,136.195 151.5,140.5C 148.924,141.107 146.591,142.274 144.5,144C 142.715,146.344 141.382,148.844 140.5,151.5C 139.167,151.5 137.833,151.5 136.5,151.5C 136.5,152.833 136.5,154.167 136.5,155.5C 135.5,155.5 134.5,155.5 133.5,155.5C 133.5,154.167 133.5,152.833 133.5,151.5C 131.833,151.5 130.167,151.5 128.5,151.5C 128.5,152.833 128.5,154.167 128.5,155.5C 119.5,155.5 110.5,155.5 101.5,155.5C 101.5,156.5 101.5,157.5 101.5,158.5C 100.167,158.5 98.8333,158.5 97.5,158.5C 97.5,156.167 97.5,153.833 97.5,151.5C 96.1667,151.5 94.8333,151.5 93.5,151.5C 93.5,148.5 93.5,145.5 93.5,142.5C 96.0733,137.756 99.24,133.423 103,129.5C 103.608,127.846 104.108,126.179 104.5,124.5C 105.795,123.512 107.128,122.512 108.5,121.5 Z"/></g>
<g><path style="opacity:0.98" fill="#6c6c6c" d="M 376.5,121.5 C 380.473,129.415 383.473,137.749 385.5,146.5C 387.537,151.956 388.537,157.623 388.5,163.5C 388.167,163.5 387.833,163.5 387.5,163.5C 387.663,161.143 387.497,158.81 387,156.5C 384.573,148.876 382.073,141.542 379.5,134.5C 379.716,132.319 378.883,130.653 377,129.5C 376.503,126.854 376.336,124.187 376.5,121.5 Z"/></g>
<g><path style="opacity:1" fill="#5c5c5c" d="M 212.5,43.5 C 212.833,44.1667 213.167,44.8333 213.5,45.5C 211.956,45.2969 210.622,44.6302 209.5,43.5C 208.334,61.1572 208.167,78.8239 209,96.5C 209.383,97.056 209.883,97.3893 210.5,97.5C 210.89,100.839 211.39,104.173 212,107.5C 214.131,109.117 215.631,111.117 216.5,113.5C 218.499,115.788 220.499,118.121 222.5,120.5C 228.801,128.468 235.801,135.801 243.5,142.5C 245.062,142.733 246.395,143.4 247.5,144.5C 249.051,146.923 251.051,148.923 253.5,150.5C 255.67,153.983 257.337,157.65 258.5,161.5C 260.292,164.546 261.292,167.879 261.5,171.5C 260.281,169.072 258.781,166.739 257,164.5C 256.667,162.167 256.333,159.833 256,157.5C 242.557,142.833 228.557,128.833 214,115.5C 211.658,111.817 210.158,107.817 209.5,103.5C 209.108,101.821 208.608,100.154 208,98.5C 207.5,79.8363 207.333,61.1696 207.5,42.5C 209.292,42.366 210.958,42.6993 212.5,43.5 Z"/></g>
<g><path style="opacity:1" fill="#a3a3a3" d="M 104.5,124.5 C 104.108,126.179 103.608,127.846 103,129.5C 99.24,133.423 96.0733,137.756 93.5,142.5C 93.1667,142.5 92.8333,142.5 92.5,142.5C 93.6298,140.685 94.2964,138.685 94.5,136.5C 97.3473,132.167 100.681,128.167 104.5,124.5 Z"/></g>
<g><path style="opacity:1" fill="#dfdfdf" d="M 296.5,139.5 C 298.132,141.799 300.132,143.799 302.5,145.5C 303.58,147.996 304.914,150.33 306.5,152.5C 306.758,156.44 307.924,160.107 310,163.5C 310.782,170.206 311.782,176.873 313,183.5C 313.637,194.9 313.137,206.233 311.5,217.5C 311.741,219.898 311.074,221.898 309.5,223.5C 307.444,224.622 306.111,226.289 305.5,228.5C 305.336,225.813 305.503,223.146 306,220.5C 306.368,219.09 307.201,218.09 308.5,217.5C 309.499,201.848 309.833,186.181 309.5,170.5C 307.103,167.336 305.936,163.669 306,159.5C 304.989,158.663 303.822,158.33 302.5,158.5C 302.296,161.518 301.963,164.518 301.5,167.5C 298.45,168.077 296.45,166.91 295.5,164C 294.5,163.333 293.5,163.333 292.5,164C 290.887,166.228 290.22,168.728 290.5,171.5C 288.473,171.338 286.473,171.505 284.5,172C 283.663,173.011 283.33,174.178 283.5,175.5C 281.143,175.337 278.81,175.503 276.5,176C 275.736,178.069 275.236,180.236 275,182.5C 271.846,172.856 270.346,173.19 270.5,183.5C 270.666,190.508 270.5,197.508 270,204.5C 269.74,206.618 268.74,208.284 267,209.5C 266.501,213.152 266.335,216.818 266.5,220.5C 265.167,220.5 263.833,220.5 262.5,220.5C 262.174,230.684 266.841,237.518 276.5,241C 277.333,243.167 278.833,244.667 281,245.5C 281.483,246.448 281.649,247.448 281.5,248.5C 282.552,248.351 283.552,248.517 284.5,249C 285.552,252.544 287.552,255.377 290.5,257.5C 290.631,258.239 290.464,258.906 290,259.5C 280.054,249.554 270.054,239.554 260,229.5C 261.016,226.393 261.516,223.06 261.5,219.5C 261.025,216.687 262.025,214.687 264.5,213.5C 265.617,209.705 266.283,205.705 266.5,201.5C 267.222,201.082 267.722,200.416 268,199.5C 268.667,193.833 268.667,188.167 268,182.5C 267.722,181.584 267.222,180.918 266.5,180.5C 266.245,175.143 264.912,170.143 262.5,165.5C 262.5,163.5 262.5,161.5 262.5,159.5C 263.833,159.5 265.167,159.5 266.5,159.5C 266.5,158.167 266.5,156.833 266.5,155.5C 269.167,155.5 271.833,155.5 274.5,155.5C 274.5,154.167 274.5,152.833 274.5,151.5C 275.833,151.5 277.167,151.5 278.5,151.5C 278.5,150.167 278.5,148.833 278.5,147.5C 284.167,147.5 289.833,147.5 295.5,147.5C 295.401,144.763 295.735,142.096 296.5,139.5 Z"/></g>
<g><path style="opacity:1" fill="#5e5e5e" d="M 292.5,126.5 C 296.197,127.291 298.03,129.624 298,133.5C 300.018,135.35 301.851,137.35 303.5,139.5C 305.175,144.838 306.842,150.171 308.5,155.5C 307.833,154.5 307.167,153.5 306.5,152.5C 304.914,150.33 303.58,147.996 302.5,145.5C 300.285,142.995 299.119,139.995 299,136.5C 296.731,133.109 294.564,129.776 292.5,126.5 Z"/></g>
<g><path style="opacity:0.98" fill="#676767" d="M 32.5,101.5 C 33.1667,101.5 33.8333,101.5 34.5,101.5C 31.7192,108.474 28.2192,115.14 24,121.5C 20.9984,129.325 18.4984,137.325 16.5,145.5C 13.8613,154.127 11.1947,162.794 8.5,171.5C 8.5,170.167 8.5,168.833 8.5,167.5C 9.90981,158.412 12.0765,149.412 15,140.5C 17.2031,138.331 18.0365,135.665 17.5,132.5C 20.1847,125.415 23.018,118.415 26,111.5C 28.4367,108.28 30.6033,104.947 32.5,101.5 Z"/></g>
<g><path style="opacity:1" fill="#252525" d="M 181.5,149.5 C 180.833,149.167 180.167,148.833 179.5,148.5C 178.116,147.199 176.616,147.199 175,148.5C 174.171,166.005 174.338,183.338 175.5,200.5C 175.998,203.487 176.498,206.487 177,209.5C 177.498,211.544 178.665,212.878 180.5,213.5C 180.877,217.212 182.544,220.212 185.5,222.5C 186.5,223.833 187.5,225.167 188.5,226.5C 188.5,226.833 188.5,227.167 188.5,227.5C 184.912,225.068 181.745,222.068 179,218.5C 178.517,217.552 178.351,216.552 178.5,215.5C 177.5,215.5 176.5,215.5 175.5,215.5C 175.542,210.28 174.708,205.28 173,200.5C 172.333,182.5 172.333,164.5 173,146.5C 175.466,145.223 177.966,145.223 180.5,146.5C 181.127,147.417 181.461,148.417 181.5,149.5 Z"/></g>
<g><path style="opacity:1" fill="#464646" d="M 179.5,148.5 C 178.178,148.33 177.011,148.663 176,149.5C 175.5,166.497 175.333,183.497 175.5,200.5C 174.338,183.338 174.171,166.005 175,148.5C 176.616,147.199 178.116,147.199 179.5,148.5 Z"/></g>
<g><path style="opacity:1" fill="#292929" d="M 181.5,149.5 C 183.798,150.31 186.132,151.144 188.5,152C 189.592,155.199 191.259,158.032 193.5,160.5C 195.187,163.01 197.52,164.51 200.5,165C 202.058,167.052 203.392,169.219 204.5,171.5C 202.436,171.238 201.103,170.071 200.5,168C 199.552,167.517 198.552,167.351 197.5,167.5C 196.5,166.833 195.5,166.167 194.5,165.5C 192.077,163.243 190.243,160.576 189,157.5C 186.688,155.132 184.188,153.132 181.5,151.5C 181.5,150.833 181.5,150.167 181.5,149.5 Z"/></g>
<g><path style="opacity:1" fill="#d2d2d2" d="M 151.5,140.5 C 143.771,148.976 136.604,157.976 130,167.5C 129.51,168.793 129.343,170.127 129.5,171.5C 126.005,175.768 124.671,180.768 125.5,186.5C 124.672,192.987 124.172,199.654 124,206.5C 123.16,196.461 121.993,186.461 120.5,176.5C 119.019,177.48 117.685,178.647 116.5,180C 111.008,179.769 106.008,180.935 101.5,183.5C 99.95,181.667 98.95,179.501 98.5,177C 98,176.833 97.5,176.667 97,176.5C 95.8319,177.509 94.6652,178.509 93.5,179.5C 92.3348,178.509 91.1681,177.509 90,176.5C 89.228,176.645 88.5613,176.978 88,177.5C 87.8295,179.715 87.1628,181.715 86,183.5C 85.5006,178.177 85.334,172.844 85.5,167.5C 87.7224,159.217 90.0557,150.883 92.5,142.5C 92.8333,142.5 93.1667,142.5 93.5,142.5C 93.5,145.5 93.5,148.5 93.5,151.5C 94.8333,151.5 96.1667,151.5 97.5,151.5C 97.5,153.833 97.5,156.167 97.5,158.5C 98.8333,158.5 100.167,158.5 101.5,158.5C 101.5,157.5 101.5,156.5 101.5,155.5C 110.5,155.5 119.5,155.5 128.5,155.5C 128.5,154.167 128.5,152.833 128.5,151.5C 130.167,151.5 131.833,151.5 133.5,151.5C 133.5,152.833 133.5,154.167 133.5,155.5C 134.5,155.5 135.5,155.5 136.5,155.5C 136.5,154.167 136.5,152.833 136.5,151.5C 137.833,151.5 139.167,151.5 140.5,151.5C 141.382,148.844 142.715,146.344 144.5,144C 146.591,142.274 148.924,141.107 151.5,140.5 Z"/></g>
<g><path style="opacity:0.957" fill="#c9c9c9" d="M 17.5,132.5 C 18.0365,135.665 17.2031,138.331 15,140.5C 12.0765,149.412 9.90981,158.412 8.5,167.5C 8.84902,161.16 9.34902,154.827 10,148.5C 12.0823,144.848 13.0823,140.848 13,136.5C 14.0487,134.616 15.5487,133.282 17.5,132.5 Z"/></g>
<g><path style="opacity:1" fill="#a5a5a5" d="M 181.5,151.5 C 184.188,153.132 186.688,155.132 189,157.5C 190.243,160.576 192.077,163.243 194.5,165.5C 192.303,164.155 189.97,162.989 187.5,162C 186.678,158.832 185.011,156.332 182.5,154.5C 181.235,153.521 179.901,152.521 178.5,151.5C 177.501,168.153 177.167,184.82 177.5,201.5C 176.338,184.672 176.172,167.672 177,150.5C 178.711,149.419 180.211,149.752 181.5,151.5 Z"/></g>
<g><path style="opacity:1" fill="#efefef" d="M 309.5,170.5 C 308.414,170.62 307.747,171.287 307.5,172.5C 306.673,175.783 306.34,179.116 306.5,182.5C 303.482,182.335 300.482,182.502 297.5,183C 296.027,183.71 295.36,184.876 295.5,186.5C 291.719,185.789 288.719,186.955 286.5,190C 284.444,190.311 282.444,190.811 280.5,191.5C 278.488,193.739 276.654,196.072 275,198.5C 274.251,193.145 272.751,188.145 270.5,183.5C 270.346,173.19 271.846,172.856 275,182.5C 275.236,180.236 275.736,178.069 276.5,176C 278.81,175.503 281.143,175.337 283.5,175.5C 283.33,174.178 283.663,173.011 284.5,172C 286.473,171.505 288.473,171.338 290.5,171.5C 290.22,168.728 290.887,166.228 292.5,164C 293.5,163.333 294.5,163.333 295.5,164C 296.45,166.91 298.45,168.077 301.5,167.5C 301.963,164.518 302.296,161.518 302.5,158.5C 303.822,158.33 304.989,158.663 306,159.5C 305.936,163.669 307.103,167.336 309.5,170.5 Z"/></g>
<g><path style="opacity:1" fill="#363636" d="M 308.5,155.5 C 309.721,156.028 310.887,156.695 312,157.5C 313.066,163.529 314.233,169.529 315.5,175.5C 314.728,174.306 313.728,173.306 312.5,172.5C 312.182,166.574 310.849,160.907 308.5,155.5 Z"/></g>
<g><path style="opacity:1" fill="#e4e4e4" d="M 182.5,154.5 C 185.011,156.332 186.678,158.832 187.5,162C 189.97,162.989 192.303,164.155 194.5,165.5C 195.172,168.644 196.172,171.644 197.5,174.5C 196.167,174.5 194.833,174.5 193.5,174.5C 193.5,175.833 193.5,177.167 193.5,178.5C 192.167,178.5 190.833,178.5 189.5,178.5C 189.5,179.833 189.5,181.167 189.5,182.5C 188.5,182.5 187.5,182.5 186.5,182.5C 186.5,183.833 186.5,185.167 186.5,186.5C 185.167,186.5 183.833,186.5 182.5,186.5C 182.5,187.5 182.5,188.5 182.5,189.5C 181.167,189.5 179.833,189.5 178.5,189.5C 178.333,177.495 178.5,165.495 179,153.5C 180.011,154.337 181.178,154.67 182.5,154.5 Z"/></g>
<g><path style="opacity:1" fill="#c8c8c8" d="M 85.5,167.5 C 85.334,172.844 85.5006,178.177 86,183.5C 87.1628,181.715 87.8295,179.715 88,177.5C 88.5613,176.978 89.228,176.645 90,176.5C 91.1681,177.509 92.3348,178.509 93.5,179.5C 94.6652,178.509 95.8319,177.509 97,176.5C 97.5,176.667 98,176.833 98.5,177C 98.95,179.501 99.95,181.667 101.5,183.5C 106.008,180.935 111.008,179.769 116.5,180C 117.685,178.647 119.019,177.48 120.5,176.5C 121.993,186.461 123.16,196.461 124,206.5C 124.172,199.654 124.672,192.987 125.5,186.5C 125.334,193.508 125.5,200.508 126,207.5C 126.417,208.756 127.25,209.423 128.5,209.5C 128.5,210.833 128.5,212.167 128.5,213.5C 128.665,216.518 128.498,219.518 128,222.5C 125.977,220.231 125.144,217.564 125.5,214.5C 114.48,214.832 103.48,214.499 92.5,213.5C 91.8551,212.354 91.0217,211.354 90,210.5C 88.8732,213.377 88.2065,216.377 88,219.5C 87.586,219.957 87.086,220.291 86.5,220.5C 85.6694,214.193 85.1694,207.859 85,201.5C 84.9918,198.655 83.8251,196.655 81.5,195.5C 81.3336,187.826 81.5003,180.159 82,172.5C 83.6257,171.045 84.7924,169.378 85.5,167.5 Z"/></g>
<g><path style="opacity:1" fill="#595959" d="M 197.5,167.5 C 198.552,167.351 199.552,167.517 200.5,168C 201.103,170.071 202.436,171.238 204.5,171.5C 205.5,173.5 206.5,175.5 207.5,177.5C 206.761,177.631 206.094,177.464 205.5,177C 202.506,174.03 199.839,170.863 197.5,167.5 Z"/></g>
<g><path style="opacity:0.973" fill="#999999" d="M 385.5,146.5 C 387.256,148.249 388.589,150.249 389.5,152.5C 389.335,156.182 389.501,159.848 390,163.5C 392.212,166.002 393.045,169.002 392.5,172.5C 391.178,172.67 390.011,172.337 389,171.5C 388.503,168.854 388.336,166.187 388.5,163.5C 388.537,157.623 387.537,151.956 385.5,146.5 Z"/></g>
<g><path style="opacity:1" fill="#fcfcfc" d="M 309.5,170.5 C 309.833,186.181 309.499,201.848 308.5,217.5C 307.201,218.09 306.368,219.09 306,220.5C 305.503,223.146 305.336,225.813 305.5,228.5C 303.192,231.99 302.025,235.99 302,240.5C 298.864,242.164 297.697,244.831 298.5,248.5C 296.914,250.67 295.58,253.004 294.5,255.5C 292.847,255.66 291.514,256.326 290.5,257.5C 287.552,255.377 285.552,252.544 284.5,249C 283.552,248.517 282.552,248.351 281.5,248.5C 281.649,247.448 281.483,246.448 281,245.5C 278.833,244.667 277.333,243.167 276.5,241C 266.841,237.518 262.174,230.684 262.5,220.5C 263.833,220.5 265.167,220.5 266.5,220.5C 266.335,216.818 266.501,213.152 267,209.5C 268.74,208.284 269.74,206.618 270,204.5C 270.5,197.508 270.666,190.508 270.5,183.5C 272.751,188.145 274.251,193.145 275,198.5C 276.654,196.072 278.488,193.739 280.5,191.5C 282.444,190.811 284.444,190.311 286.5,190C 288.719,186.955 291.719,185.789 295.5,186.5C 295.36,184.876 296.027,183.71 297.5,183C 300.482,182.502 303.482,182.335 306.5,182.5C 306.34,179.116 306.673,175.783 307.5,172.5C 307.747,171.287 308.414,170.62 309.5,170.5 Z"/></g>
<g><path style="opacity:0.998" fill="#1c1c1c" d="M 379.5,134.5 C 382.073,141.542 384.573,148.876 387,156.5C 387.497,158.81 387.663,161.143 387.5,163.5C 387.728,170.551 388.395,177.551 389.5,184.5C 390.5,184.5 391.5,184.5 392.5,184.5C 392.5,186.167 392.5,187.833 392.5,189.5C 391.07,189.579 389.736,189.246 388.5,188.5C 387.205,179.205 386.205,169.871 385.5,160.5C 384.914,160.291 384.414,159.957 384,159.5C 383.147,155.531 382.481,151.531 382,147.5C 381.586,147.043 381.086,146.709 380.5,146.5C 379.509,142.555 379.176,138.555 379.5,134.5 Z"/></g>
<g><path style="opacity:1" fill="#767676" d="M 179.5,148.5 C 180.167,148.833 180.833,149.167 181.5,149.5C 181.5,150.167 181.5,150.833 181.5,151.5C 180.211,149.752 178.711,149.419 177,150.5C 176.172,167.672 176.338,184.672 177.5,201.5C 177.5,202.833 177.5,204.167 177.5,205.5C 179.59,207.692 180.59,210.359 180.5,213.5C 178.665,212.878 177.498,211.544 177,209.5C 176.498,206.487 175.998,203.487 175.5,200.5C 175.333,183.497 175.5,166.497 176,149.5C 177.011,148.663 178.178,148.33 179.5,148.5 Z"/></g>
<g><path style="opacity:1" fill="#d5d5d5" d="M 182.5,154.5 C 181.178,154.67 180.011,154.337 179,153.5C 178.5,165.495 178.333,177.495 178.5,189.5C 179.833,189.5 181.167,189.5 182.5,189.5C 182.5,188.5 182.5,187.5 182.5,186.5C 183.833,186.5 185.167,186.5 186.5,186.5C 186.5,185.167 186.5,183.833 186.5,182.5C 187.5,182.5 188.5,182.5 189.5,182.5C 189.5,181.167 189.5,179.833 189.5,178.5C 190.833,178.5 192.167,178.5 193.5,178.5C 193.5,177.167 193.5,175.833 193.5,174.5C 194.833,174.5 196.167,174.5 197.5,174.5C 196.172,171.644 195.172,168.644 194.5,165.5C 195.5,166.167 196.5,166.833 197.5,167.5C 199.839,170.863 202.506,174.03 205.5,177C 206.094,177.464 206.761,177.631 207.5,177.5C 208.593,179.349 209.926,181.016 211.5,182.5C 212.349,185.036 213.349,187.536 214.5,190C 213.975,190.692 213.308,191.192 212.5,191.5C 211.52,190.019 210.353,188.685 209,187.5C 208.667,187.833 208.333,188.167 208,188.5C 208.78,190.73 209.613,193.063 210.5,195.5C 208.473,195.338 206.473,195.505 204.5,196C 203.333,197.833 201.833,199.333 200,200.5C 200.494,206.002 197.994,208.502 192.5,208C 190.833,209.667 189.167,211.333 187.5,213C 188.99,215.2 188.657,217.034 186.5,218.5C 186.302,215.215 184.635,213.548 181.5,213.5C 181.663,211.143 181.497,208.81 181,206.5C 179.989,205.663 178.822,205.33 177.5,205.5C 177.5,204.167 177.5,202.833 177.5,201.5C 177.167,184.82 177.501,168.153 178.5,151.5C 179.901,152.521 181.235,153.521 182.5,154.5 Z"/></g>
<g><path style="opacity:0.988" fill="#3d3d3d" d="M 387.5,163.5 C 387.833,163.5 388.167,163.5 388.5,163.5C 388.336,166.187 388.503,168.854 389,171.5C 390.011,172.337 391.178,172.67 392.5,172.5C 392.5,176.5 392.5,180.5 392.5,184.5C 391.5,184.5 390.5,184.5 389.5,184.5C 388.395,177.551 387.728,170.551 387.5,163.5 Z"/></g>
<g><path style="opacity:0.999" fill="#1d1d1d" d="M 16.5,145.5 C 16.665,148.85 16.4983,152.183 16,155.5C 15.964,157.941 15.1307,159.941 13.5,161.5C 12.6684,169.479 12.1684,177.479 12,185.5C 11.2904,186.973 10.1238,187.64 8.5,187.5C 8.5,182.167 8.5,176.833 8.5,171.5C 11.1947,162.794 13.8613,154.127 16.5,145.5 Z"/></g>
<g><path style="opacity:1" fill="#3b3b3b" d="M 315.5,175.5 C 316.82,189.026 316.653,202.692 315,216.5C 311.708,223.559 309.374,230.892 308,238.5C 305.212,240.412 303.879,243.079 304,246.5C 303.329,247.252 302.496,247.586 301.5,247.5C 302.441,245.95 303.107,244.284 303.5,242.5C 306.563,236.603 308.563,230.27 309.5,223.5C 311.074,221.898 311.741,219.898 311.5,217.5C 313.027,213.733 314.027,209.733 314.5,205.5C 315.494,195.681 315.827,185.681 315.5,175.5 Z"/></g>
<g><path style="opacity:1" fill="#878787" d="M 94.5,136.5 C 94.2964,138.685 93.6298,140.685 92.5,142.5C 90.0557,150.883 87.7224,159.217 85.5,167.5C 84.7924,169.378 83.6257,171.045 82,172.5C 81.5003,180.159 81.3336,187.826 81.5,195.5C 80.872,201.762 81.7054,207.762 84,213.5C 84.4974,216.146 84.6641,218.813 84.5,221.5C 83.4138,221.38 82.7472,220.713 82.5,219.5C 77.4808,196.184 78.8141,173.517 86.5,151.5C 88.0444,146.765 89.8777,142.098 92,137.5C 92.6708,136.748 93.5041,136.414 94.5,136.5 Z"/></g>
<g><path style="opacity:1" fill="#6f6f6f" d="M 212.5,182.5 C 217.86,186.81 223.027,191.477 228,196.5C 228.41,197.901 228.91,199.234 229.5,200.5C 226.845,198.585 224.179,196.585 221.5,194.5C 218.111,190.78 215.111,186.78 212.5,182.5 Z"/></g>
<g><path style="opacity:1" fill="#c6c6c6" d="M 211.5,182.5 C 211.833,182.5 212.167,182.5 212.5,182.5C 215.111,186.78 218.111,190.78 221.5,194.5C 223.618,196.758 224.784,199.424 225,202.5C 222.79,206.055 219.623,207.888 215.5,208C 214.833,210 214.167,212 213.5,214C 208.667,213.5 206.5,215.667 207,220.5C 203.093,223.88 200.26,227.88 198.5,232.5C 196.407,230.342 194.741,228.008 193.5,225.5C 190.412,225.361 187.745,224.361 185.5,222.5C 182.544,220.212 180.877,217.212 180.5,213.5C 180.59,210.359 179.59,207.692 177.5,205.5C 178.822,205.33 179.989,205.663 181,206.5C 181.497,208.81 181.663,211.143 181.5,213.5C 184.635,213.548 186.302,215.215 186.5,218.5C 188.657,217.034 188.99,215.2 187.5,213C 189.167,211.333 190.833,209.667 192.5,208C 197.994,208.502 200.494,206.002 200,200.5C 201.833,199.333 203.333,197.833 204.5,196C 206.473,195.505 208.473,195.338 210.5,195.5C 209.613,193.063 208.78,190.73 208,188.5C 208.333,188.167 208.667,187.833 209,187.5C 210.353,188.685 211.52,190.019 212.5,191.5C 213.308,191.192 213.975,190.692 214.5,190C 213.349,187.536 212.349,185.036 211.5,182.5 Z"/></g>
<g><path style="opacity:1" fill="#9b9b9b" d="M 129.5,171.5 C 125.906,184.057 125.573,196.724 128.5,209.5C 127.25,209.423 126.417,208.756 126,207.5C 125.5,200.508 125.334,193.508 125.5,186.5C 124.671,180.768 126.005,175.768 129.5,171.5 Z"/></g>
<g><path style="opacity:1" fill="#acacac" d="M 266.5,180.5 C 267.222,180.918 267.722,181.584 268,182.5C 268.667,188.167 268.667,193.833 268,199.5C 267.722,200.416 267.222,201.082 266.5,201.5C 267.541,194.518 267.541,187.518 266.5,180.5 Z"/></g>
<g><path style="opacity:1" fill="#919191" d="M 306.5,152.5 C 307.167,153.5 307.833,154.5 308.5,155.5C 310.849,160.907 312.182,166.574 312.5,172.5C 312.892,174.179 313.392,175.846 314,177.5C 314.5,186.827 314.666,196.161 314.5,205.5C 314.027,209.733 313.027,213.733 311.5,217.5C 313.137,206.233 313.637,194.9 313,183.5C 311.782,176.873 310.782,170.206 310,163.5C 307.924,160.107 306.758,156.44 306.5,152.5 Z"/></g>
<g><path style="opacity:1" fill="#5b5b5b" d="M 174.5,119.5 C 173.972,120.721 173.305,121.887 172.5,123C 170.189,124.172 168.189,125.672 166.5,127.5C 162.639,130.855 159.472,134.855 157,139.5C 151.118,144.665 145.452,149.998 140,155.5C 139.333,157.5 138.667,159.5 138,161.5C 136.989,162.337 135.822,162.67 134.5,162.5C 131.628,173.076 129.628,183.909 128.5,195C 129.476,203.053 131.143,210.887 133.5,218.5C 132.85,218.196 132.183,217.863 131.5,217.5C 130.743,214.63 129.743,211.964 128.5,209.5C 125.573,196.724 125.906,184.057 129.5,171.5C 129.343,170.127 129.51,168.793 130,167.5C 136.604,157.976 143.771,148.976 151.5,140.5C 155.139,136.195 159.139,132.195 163.5,128.5C 166.544,124.756 170.21,121.756 174.5,119.5 Z"/></g>
<g><path style="opacity:1" fill="#7e7e7e" d="M 258.5,161.5 C 260.194,162.527 261.527,163.861 262.5,165.5C 264.912,170.143 266.245,175.143 266.5,180.5C 267.541,187.518 267.541,194.518 266.5,201.5C 266.283,205.705 265.617,209.705 264.5,213.5C 265.461,202.181 265.628,190.848 265,179.5C 264.678,176.334 263.511,173.667 261.5,171.5C 261.292,167.879 260.292,164.546 258.5,161.5 Z"/></g>
<g><path style="opacity:1" fill="#616161" d="M 312.5,172.5 C 313.728,173.306 314.728,174.306 315.5,175.5C 315.827,185.681 315.494,195.681 314.5,205.5C 314.666,196.161 314.5,186.827 314,177.5C 313.392,175.846 312.892,174.179 312.5,172.5 Z"/></g>
<g><path style="opacity:1" fill="#b7b7b7" d="M 221.5,194.5 C 224.179,196.585 226.845,198.585 229.5,200.5C 230.492,200.328 231.158,200.662 231.5,201.5C 233.261,205.808 235.928,209.474 239.5,212.5C 240.429,213.689 240.762,215.022 240.5,216.5C 241.5,216.5 242.5,216.5 243.5,216.5C 243.5,217.833 243.5,219.167 243.5,220.5C 242.167,220.5 240.833,220.5 239.5,220.5C 239.5,221.833 239.5,223.167 239.5,224.5C 238.5,224.5 237.5,224.5 236.5,224.5C 236.5,225.833 236.5,227.167 236.5,228.5C 235.167,228.5 233.833,228.5 232.5,228.5C 232.5,229.833 232.5,231.167 232.5,232.5C 231.167,232.5 229.833,232.5 228.5,232.5C 228.5,233.833 228.5,235.167 228.5,236.5C 227.167,236.5 225.833,236.5 224.5,236.5C 224.5,237.5 224.5,238.5 224.5,239.5C 223.167,239.5 221.833,239.5 220.5,239.5C 220.5,240.833 220.5,242.167 220.5,243.5C 219.167,243.5 217.833,243.5 216.5,243.5C 216.5,244.833 216.5,246.167 216.5,247.5C 215.167,247.5 213.833,247.5 212.5,247.5C 212.5,246.5 212.5,245.5 212.5,244.5C 211.167,244.5 209.833,244.5 208.5,244.5C 202.112,238.108 195.445,232.108 188.5,226.5C 187.5,225.167 186.5,223.833 185.5,222.5C 187.745,224.361 190.412,225.361 193.5,225.5C 194.741,228.008 196.407,230.342 198.5,232.5C 200.26,227.88 203.093,223.88 207,220.5C 206.5,215.667 208.667,213.5 213.5,214C 214.167,212 214.833,210 215.5,208C 219.623,207.888 222.79,206.055 225,202.5C 224.784,199.424 223.618,196.758 221.5,194.5 Z"/></g>
<g><path style="opacity:1" fill="#414141" d="M 261.5,171.5 C 263.511,173.667 264.678,176.334 265,179.5C 265.628,190.848 265.461,202.181 264.5,213.5C 262.025,214.687 261.025,216.687 261.5,219.5C 259.207,221.469 257.207,223.802 255.5,226.5C 252.097,224.1 249.43,221.1 247.5,217.5C 248.552,217.351 249.552,217.517 250.5,218C 253.417,223.496 256.417,223.663 259.5,218.5C 260.137,215.893 261.304,213.56 263,211.5C 263.667,199.833 263.667,188.167 263,176.5C 261.731,175.095 261.231,173.429 261.5,171.5 Z"/></g>
<g><path style="opacity:1" fill="#969696" d="M 128.5,209.5 C 129.743,211.964 130.743,214.63 131.5,217.5C 132.183,217.863 132.85,218.196 133.5,218.5C 133.263,219.791 133.596,220.791 134.5,221.5C 134.343,222.873 134.51,224.207 135,225.5C 136.719,228.288 138.885,230.621 141.5,232.5C 141.5,233.167 141.5,233.833 141.5,234.5C 141.5,235.167 141.5,235.833 141.5,236.5C 138.491,233.85 135.825,230.85 133.5,227.5C 132.735,222.268 131.068,217.601 128.5,213.5C 128.5,212.167 128.5,210.833 128.5,209.5 Z"/></g>
<g><path style="opacity:1" fill="#a5a5a5" d="M 231.5,201.5 C 234.188,202.024 235.688,203.691 236,206.5C 238.614,209.79 241.781,212.29 245.5,214C 246.823,214.816 247.489,215.983 247.5,217.5C 249.43,221.1 252.097,224.1 255.5,226.5C 257.207,223.802 259.207,221.469 261.5,219.5C 261.516,223.06 261.016,226.393 260,229.5C 270.054,239.554 280.054,249.554 290,259.5C 290.464,258.906 290.631,258.239 290.5,257.5C 291.514,256.326 292.847,255.66 294.5,255.5C 292.721,256.67 291.721,258.336 291.5,260.5C 289.486,260.608 287.82,259.942 286.5,258.5C 285.068,255.903 282.901,254.237 280,253.5C 279.517,252.552 279.351,251.552 279.5,250.5C 277.901,250.768 276.568,250.434 275.5,249.5C 275.649,248.448 275.483,247.448 275,246.5C 270.167,241.667 265.333,236.833 260.5,232C 258.444,231.689 256.444,231.189 254.5,230.5C 246.915,237.419 239.581,244.752 232.5,252.5C 230.604,253.466 228.604,253.799 226.5,253.5C 226.441,256.049 227.441,258.049 229.5,259.5C 227.78,259.746 225.78,259.746 223.5,259.5C 218.167,254.833 213.167,249.833 208.5,244.5C 209.833,244.5 211.167,244.5 212.5,244.5C 212.5,245.5 212.5,246.5 212.5,247.5C 213.833,247.5 215.167,247.5 216.5,247.5C 216.5,246.167 216.5,244.833 216.5,243.5C 217.833,243.5 219.167,243.5 220.5,243.5C 220.5,242.167 220.5,240.833 220.5,239.5C 221.833,239.5 223.167,239.5 224.5,239.5C 224.5,238.5 224.5,237.5 224.5,236.5C 225.833,236.5 227.167,236.5 228.5,236.5C 228.5,235.167 228.5,233.833 228.5,232.5C 229.833,232.5 231.167,232.5 232.5,232.5C 232.5,231.167 232.5,229.833 232.5,228.5C 233.833,228.5 235.167,228.5 236.5,228.5C 236.5,227.167 236.5,225.833 236.5,224.5C 237.5,224.5 238.5,224.5 239.5,224.5C 239.5,223.167 239.5,221.833 239.5,220.5C 240.833,220.5 242.167,220.5 243.5,220.5C 243.5,219.167 243.5,217.833 243.5,216.5C 242.5,216.5 241.5,216.5 240.5,216.5C 240.762,215.022 240.429,213.689 239.5,212.5C 235.928,209.474 233.261,205.808 231.5,201.5 Z"/></g>
<g><path style="opacity:1" fill="#bababa" d="M 81.5,195.5 C 83.8251,196.655 84.9918,198.655 85,201.5C 85.1694,207.859 85.6694,214.193 86.5,220.5C 87.086,220.291 87.586,219.957 88,219.5C 88.2065,216.377 88.8732,213.377 90,210.5C 91.0217,211.354 91.8551,212.354 92.5,213.5C 103.48,214.499 114.48,214.832 125.5,214.5C 125.144,217.564 125.977,220.231 128,222.5C 128.498,219.518 128.665,216.518 128.5,213.5C 131.068,217.601 132.735,222.268 133.5,227.5C 135.825,230.85 138.491,233.85 141.5,236.5C 145.167,239.5 148.5,242.833 151.5,246.5C 151.5,247.833 151.5,249.167 151.5,250.5C 150.5,250.5 149.5,250.5 148.5,250.5C 147.167,248.167 145.833,245.833 144.5,243.5C 141.134,244.612 138.301,246.612 136,249.5C 133.333,245.5 130.667,245.5 128,249.5C 125.432,245.578 122.932,245.578 120.5,249.5C 119.335,248.509 118.168,247.509 117,246.5C 115.374,247.289 113.874,248.289 112.5,249.5C 109.981,245.648 107.314,245.648 104.5,249.5C 103.534,251.396 103.201,253.396 103.5,255.5C 102.5,255.5 101.5,255.5 100.5,255.5C 95.1625,244.101 89.8291,232.768 84.5,221.5C 84.6641,218.813 84.4974,216.146 84,213.5C 81.7054,207.762 80.872,201.762 81.5,195.5 Z"/></g>
<g><path style="opacity:1" fill="#383838" d="M 86.5,151.5 C 78.8141,173.517 77.4808,196.184 82.5,219.5C 82.7472,220.713 83.4138,221.38 84.5,221.5C 85.8021,227.095 87.1354,232.762 88.5,238.5C 85.4738,232.961 82.6405,227.295 80,221.5C 79.4847,212.044 78.318,202.711 76.5,193.5C 78.1268,180.639 80.2934,167.972 83,155.5C 84.4048,154.269 85.5714,152.936 86.5,151.5 Z"/></g>
<g><path style="opacity:1" fill="#4e4e4e" d="M 134.5,221.5 C 135.721,222.028 136.887,222.695 138,223.5C 139.022,226.618 140.189,229.618 141.5,232.5C 138.885,230.621 136.719,228.288 135,225.5C 134.51,224.207 134.343,222.873 134.5,221.5 Z"/></g>
<g><path style="opacity:0.997" fill="#1c1c1c" d="M 392.5,210.5 C 392.5,212.833 392.5,215.167 392.5,217.5C 391.5,217.5 390.5,217.5 389.5,217.5C 388.184,225.1 387.351,232.766 387,240.5C 385.615,241.551 384.615,242.884 384,244.5C 384.418,251.485 382.918,257.818 379.5,263.5C 378.916,260.017 379.749,257.017 382,254.5C 382.333,250.167 382.667,245.833 383,241.5C 383.196,239.714 384.029,238.381 385.5,237.5C 386.332,229.521 386.832,221.521 387,213.5C 387.928,210.965 389.762,209.965 392.5,210.5 Z"/></g>
<g><path style="opacity:1" fill="#969696" d="M 275.5,249.5 C 271.571,245.08 269.404,245.747 269,251.5C 261.652,259.015 254.152,266.348 246.5,273.5C 245.548,275.045 245.215,276.712 245.5,278.5C 243.952,278.179 243.285,277.179 243.5,275.5C 240.812,275.834 238.479,275.168 236.5,273.5C 232.167,268.833 227.833,264.167 223.5,259.5C 225.78,259.746 227.78,259.746 229.5,259.5C 227.441,258.049 226.441,256.049 226.5,253.5C 228.604,253.799 230.604,253.466 232.5,252.5C 239.581,244.752 246.915,237.419 254.5,230.5C 256.444,231.189 258.444,231.689 260.5,232C 265.333,236.833 270.167,241.667 275,246.5C 275.483,247.448 275.649,248.448 275.5,249.5 Z"/></g>
<g><path style="opacity:1" fill="#929292" d="M 84.5,221.5 C 89.8291,232.768 95.1625,244.101 100.5,255.5C 97.2941,253.436 95.4608,250.436 95,246.5C 93.0539,243.58 90.8872,240.913 88.5,238.5C 87.1354,232.762 85.8021,227.095 84.5,221.5 Z"/></g>
<g><path style="opacity:0.984" fill="#4c4c4c" d="M 8.5,217.5 C 11.0693,233.743 14.736,249.743 19.5,265.5C 18.9162,263.257 17.7495,261.257 16,259.5C 12.7977,248.174 10.2977,236.841 8.5,225.5C 8.5,222.833 8.5,220.167 8.5,217.5 Z"/></g>
<g><path style="opacity:1" fill="#b4b4b4" d="M 309.5,223.5 C 308.563,230.27 306.563,236.603 303.5,242.5C 301.833,244.5 300.167,246.5 298.5,248.5C 297.697,244.831 298.864,242.164 302,240.5C 302.025,235.99 303.192,231.99 305.5,228.5C 306.111,226.289 307.444,224.622 309.5,223.5 Z"/></g>
<g><path style="opacity:1" fill="#464646" d="M 141.5,232.5 C 147.298,237.797 152.965,243.297 158.5,249C 159.448,249.483 160.448,249.649 161.5,249.5C 161.351,250.552 161.517,251.552 162,252.5C 175.422,265.419 188.256,278.753 200.5,292.5C 180.833,273.167 161.167,253.833 141.5,234.5C 141.5,233.833 141.5,233.167 141.5,232.5 Z"/></g>
<g><path style="opacity:1" fill="#757575" d="M 141.5,234.5 C 161.167,253.833 180.833,273.167 200.5,292.5C 201.6,293.605 202.267,294.938 202.5,296.5C 195.833,290.167 189.167,283.833 182.5,277.5C 172.5,266.833 162.167,256.5 151.5,246.5C 148.5,242.833 145.167,239.5 141.5,236.5C 141.5,235.833 141.5,235.167 141.5,234.5 Z"/></g>
<g><path style="opacity:1" fill="#888888" d="M 275.5,249.5 C 276.568,250.434 277.901,250.768 279.5,250.5C 279.351,251.552 279.517,252.552 280,253.5C 282.901,254.237 285.068,255.903 286.5,258.5C 284.549,258.773 283.049,258.107 282,256.5C 280.019,258.359 279.019,260.692 279,263.5C 271.842,270.457 264.675,277.457 257.5,284.5C 256.166,286.818 256.832,288.485 259.5,289.5C 257.955,290.452 256.288,290.785 254.5,290.5C 253.893,287.924 252.726,285.591 251,283.5C 249.989,282.663 248.822,282.33 247.5,282.5C 247.473,280.801 246.806,279.467 245.5,278.5C 245.215,276.712 245.548,275.045 246.5,273.5C 254.152,266.348 261.652,259.015 269,251.5C 269.404,245.747 271.571,245.08 275.5,249.5 Z"/></g>
<g><path style="opacity:1" fill="#797979" d="M 303.5,242.5 C 303.107,244.284 302.441,245.95 301.5,247.5C 301.443,248.609 301.11,249.609 300.5,250.5C 297.573,253.693 294.906,257.193 292.5,261C 290.744,261.202 289.078,261.702 287.5,262.5C 286.345,265.995 284.012,267.995 280.5,268.5C 280.649,269.552 280.483,270.552 280,271.5C 277.61,272.891 275.943,274.891 275,277.5C 269.403,281.553 264.57,286.386 260.5,292C 258.527,292.495 256.527,292.662 254.5,292.5C 247.808,286.75 241.808,280.416 236.5,273.5C 238.479,275.168 240.812,275.834 243.5,275.5C 243.285,277.179 243.952,278.179 245.5,278.5C 246.806,279.467 247.473,280.801 247.5,282.5C 248.822,282.33 249.989,282.663 251,283.5C 252.726,285.591 253.893,287.924 254.5,290.5C 256.288,290.785 257.955,290.452 259.5,289.5C 256.832,288.485 256.166,286.818 257.5,284.5C 264.675,277.457 271.842,270.457 279,263.5C 279.019,260.692 280.019,258.359 282,256.5C 283.049,258.107 284.549,258.773 286.5,258.5C 287.82,259.942 289.486,260.608 291.5,260.5C 291.721,258.336 292.721,256.67 294.5,255.5C 295.58,253.004 296.914,250.67 298.5,248.5C 300.167,246.5 301.833,244.5 303.5,242.5 Z"/></g>
<g><path style="opacity:1" fill="#555555" d="M 88.5,238.5 C 90.8872,240.913 93.0539,243.58 95,246.5C 95.4608,250.436 97.2941,253.436 100.5,255.5C 100.704,257.685 101.37,259.685 102.5,261.5C 99.7411,258.779 97.2411,255.779 95,252.5C 95.1069,249.443 93.9402,247.109 91.5,245.5C 90.6805,243.026 89.6805,240.693 88.5,238.5 Z"/></g>
<g><path style="opacity:1" fill="#4f4f4f" d="M 188.5,226.5 C 195.445,232.108 202.112,238.108 208.5,244.5C 213.167,249.833 218.167,254.833 223.5,259.5C 227.833,264.167 232.167,268.833 236.5,273.5C 228.824,266.495 220.824,259.828 212.5,253.5C 209.885,249.35 206.552,245.85 202.5,243C 201.552,242.517 200.552,242.351 199.5,242.5C 197.699,237.353 194.366,233.353 189.5,230.5C 188.614,229.675 188.281,228.675 188.5,227.5C 188.5,227.167 188.5,226.833 188.5,226.5 Z"/></g>
<g><path style="opacity:0.961" fill="#959595" d="M 8.5,225.5 C 10.2977,236.841 12.7977,248.174 16,259.5C 17.7495,261.257 18.9162,263.257 19.5,265.5C 19.6854,267.196 20.5187,268.529 22,269.5C 22.1955,274.939 24.0288,279.606 27.5,283.5C 28.6827,286.381 29.6827,289.381 30.5,292.5C 28.9705,290.631 27.4705,288.631 26,286.5C 22.8121,276.702 18.8121,267.368 14,258.5C 13.9154,254.529 12.9154,250.862 11,247.5C 9.74366,240.207 8.91033,232.874 8.5,225.5 Z"/></g>
<g><path style="opacity:0.973" fill="#656565" d="M 392.5,217.5 C 392.5,220.167 392.5,222.833 392.5,225.5C 391.504,225.414 390.671,225.748 390,226.5C 389.11,233.857 388.11,241.19 387,248.5C 385.543,255.28 383.043,261.614 379.5,267.5C 379.5,266.167 379.5,264.833 379.5,263.5C 382.918,257.818 384.418,251.485 384,244.5C 384.615,242.884 385.615,241.551 387,240.5C 387.351,232.766 388.184,225.1 389.5,217.5C 390.5,217.5 391.5,217.5 392.5,217.5 Z"/></g>
<g><path style="opacity:1" fill="#acacac" d="M 151.5,246.5 C 162.167,256.5 172.5,266.833 182.5,277.5C 182.5,278.833 182.5,280.167 182.5,281.5C 181.167,281.5 179.833,281.5 178.5,281.5C 178.561,284.05 179.894,285.55 182.5,286C 181.667,286.167 180.833,286.333 180,286.5C 178.162,285.465 176.329,284.465 174.5,283.5C 172.603,283.728 171.27,284.728 170.5,286.5C 167.902,282.548 165.402,282.548 163,286.5C 162.626,285.584 162.126,284.75 161.5,284C 152.84,283.5 144.173,283.334 135.5,283.5C 135.616,280.09 133.95,278.756 130.5,279.5C 130.5,280.5 130.5,281.5 130.5,282.5C 127.391,280.015 123.724,278.682 119.5,278.5C 118.631,274.571 116.298,272.071 112.5,271C 110.259,269.261 108.592,267.094 107.5,264.5C 105.879,263.305 104.213,262.305 102.5,261.5C 101.37,259.685 100.704,257.685 100.5,255.5C 101.5,255.5 102.5,255.5 103.5,255.5C 103.201,253.396 103.534,251.396 104.5,249.5C 107.314,245.648 109.981,245.648 112.5,249.5C 113.874,248.289 115.374,247.289 117,246.5C 118.168,247.509 119.335,248.509 120.5,249.5C 122.932,245.578 125.432,245.578 128,249.5C 130.667,245.5 133.333,245.5 136,249.5C 138.301,246.612 141.134,244.612 144.5,243.5C 145.833,245.833 147.167,248.167 148.5,250.5C 149.5,250.5 150.5,250.5 151.5,250.5C 151.5,249.167 151.5,247.833 151.5,246.5 Z"/></g>
<g><path style="opacity:1" fill="#404040" d="M 300.5,250.5 C 300.649,251.552 300.483,252.552 300,253.5C 293.018,262.153 285.351,270.487 277,278.5C 276.517,279.448 276.351,280.448 276.5,281.5C 275.5,281.5 274.5,281.5 273.5,281.5C 273.5,282.5 273.5,283.5 273.5,284.5C 269.5,285.656 266.5,288.156 264.5,292C 262.481,292.45 260.648,293.283 259,294.5C 257.378,293.901 255.878,293.234 254.5,292.5C 256.527,292.662 258.527,292.495 260.5,292C 264.57,286.386 269.403,281.553 275,277.5C 275.943,274.891 277.61,272.891 280,271.5C 280.483,270.552 280.649,269.552 280.5,268.5C 284.012,267.995 286.345,265.995 287.5,262.5C 289.078,261.702 290.744,261.202 292.5,261C 294.906,257.193 297.573,253.693 300.5,250.5 Z"/></g>
<g><path style="opacity:1" fill="#707070" d="M 102.5,261.5 C 104.213,262.305 105.879,263.305 107.5,264.5C 108.592,267.094 110.259,269.261 112.5,271C 116.298,272.071 118.631,274.571 119.5,278.5C 116.276,275.863 112.942,273.197 109.5,270.5C 107.949,268.077 105.949,266.077 103.5,264.5C 102.873,263.583 102.539,262.583 102.5,261.5 Z"/></g>
<g><path style="opacity:0.984" fill="#525252" d="M 379.5,267.5 C 377.445,271.174 376.278,275.174 376,279.5C 373.64,284.24 370.807,288.574 367.5,292.5C 368.447,287.398 370.114,282.565 372.5,278C 374.747,274.391 377.08,270.891 379.5,267.5 Z"/></g>
<g><path style="opacity:1" fill="#202020" d="M 109.5,270.5 C 112.942,273.197 116.276,275.863 119.5,278.5C 121,281.044 122.667,283.378 124.5,285.5C 116.425,283.425 111.425,278.425 109.5,270.5 Z"/></g>
<g><path style="opacity:0.953" fill="#b8b8b8" d="M 392.5,225.5 C 393.045,228.998 392.212,231.998 390,234.5C 389.667,239.833 389.333,245.167 389,250.5C 386.041,253.098 384.707,256.432 385,260.5C 381.534,267.565 378.868,274.899 377,282.5C 376,283.5 375,284.5 374,285.5C 372.381,289.141 370.714,292.807 369,296.5C 367.989,297.337 366.822,297.67 365.5,297.5C 366.167,295.833 366.833,294.167 367.5,292.5C 370.807,288.574 373.64,284.24 376,279.5C 376.278,275.174 377.445,271.174 379.5,267.5C 383.043,261.614 385.543,255.28 387,248.5C 388.11,241.19 389.11,233.857 390,226.5C 390.671,225.748 391.504,225.414 392.5,225.5 Z"/></g>
<g><path style="opacity:0.992" fill="#3e3e3e" d="M 27.5,283.5 C 28.4959,283.414 29.3292,283.748 30,284.5C 32.0548,289.529 34.0548,294.529 36,299.5C 38.5945,301.704 40.4278,304.37 41.5,307.5C 37.2328,304.073 34.3995,299.74 33,294.5C 32.2917,293.619 31.4584,292.953 30.5,292.5C 29.6827,289.381 28.6827,286.381 27.5,283.5 Z"/></g>
<g><path style="opacity:0.976" fill="#4e4e4e" d="M 367.5,292.5 C 366.833,294.167 366.167,295.833 365.5,297.5C 365.5,297.833 365.5,298.167 365.5,298.5C 364.441,300.555 362.775,301.889 360.5,302.5C 360.351,301.448 360.517,300.448 361,299.5C 362.719,296.712 364.885,294.379 367.5,292.5 Z"/></g>
<g><path style="opacity:1" fill="#9e9e9e" d="M 182.5,277.5 C 189.167,283.833 195.833,290.167 202.5,296.5C 204.597,301.215 205.93,306.215 206.5,311.5C 206.5,321.833 206.5,332.167 206.5,342.5C 205.178,342.67 204.011,342.337 203,341.5C 202.941,336.652 202.274,331.985 201,327.5C 200,329.167 198.667,330.5 197,331.5C 196.059,329.939 194.892,328.605 193.5,327.5C 190.984,336.669 188.317,336.669 185.5,327.5C 183.064,331.214 179.731,333.047 175.5,333C 172.176,329.375 168.843,325.708 165.5,322C 164.207,321.51 162.873,321.343 161.5,321.5C 160.155,319.303 158.989,316.97 158,314.5C 155.491,312.769 152.991,311.102 150.5,309.5C 149.391,309.443 148.391,309.11 147.5,308.5C 147.238,306.436 146.071,305.103 144,304.5C 142.991,302.975 142.491,301.308 142.5,299.5C 140.315,299.296 138.315,298.63 136.5,297.5C 132.779,293.112 128.779,289.112 124.5,285.5C 122.667,283.378 121,281.044 119.5,278.5C 123.724,278.682 127.391,280.015 130.5,282.5C 130.5,281.5 130.5,280.5 130.5,279.5C 133.95,278.756 135.616,280.09 135.5,283.5C 144.173,283.334 152.84,283.5 161.5,284C 162.126,284.75 162.626,285.584 163,286.5C 165.402,282.548 167.902,282.548 170.5,286.5C 171.27,284.728 172.603,283.728 174.5,283.5C 176.329,284.465 178.162,285.465 180,286.5C 180.833,286.333 181.667,286.167 182.5,286C 179.894,285.55 178.561,284.05 178.5,281.5C 179.833,281.5 181.167,281.5 182.5,281.5C 182.5,280.167 182.5,278.833 182.5,277.5 Z"/></g>
<g><path style="opacity:0.961" fill="#9b9b9b" d="M 30.5,292.5 C 31.4584,292.953 32.2917,293.619 33,294.5C 34.3995,299.74 37.2328,304.073 41.5,307.5C 42.2115,310.235 43.8782,312.235 46.5,313.5C 48.0935,316.315 49.5935,319.315 51,322.5C 51.7589,324.063 52.9256,325.063 54.5,325.5C 55.8333,327.5 57.1667,329.5 58.5,331.5C 57.8333,331.5 57.1667,331.5 56.5,331.5C 55.6091,330.739 54.9424,329.739 54.5,328.5C 53.675,327.614 52.675,327.281 51.5,327.5C 50.6716,323.471 48.5049,320.471 45,318.5C 42.9289,315.412 41.2622,312.079 40,308.5C 34.9654,304.294 31.7987,298.96 30.5,292.5 Z"/></g>
<g><path style="opacity:1" fill="#353535" d="M 136.5,297.5 C 138.315,298.63 140.315,299.296 142.5,299.5C 142.491,301.308 142.991,302.975 144,304.5C 146.071,305.103 147.238,306.436 147.5,308.5C 143.903,306.574 140.57,304.241 137.5,301.5C 136.571,300.311 136.238,298.978 136.5,297.5 Z"/></g>
<g><path style="opacity:0.973" fill="#525252" d="M 360.5,302.5 C 359.94,305.713 358.773,308.713 357,311.5C 352.569,316.085 348.403,320.751 344.5,325.5C 344.343,324.127 344.51,322.793 345,321.5C 348.333,317.5 352,313.833 356,310.5C 356.23,307.032 357.73,304.366 360.5,302.5 Z"/></g>
<g><path style="opacity:1" fill="#686868" d="M 150.5,309.5 C 152.991,311.102 155.491,312.769 158,314.5C 158.989,316.97 160.155,319.303 161.5,321.5C 157.124,318.126 153.458,314.126 150.5,309.5 Z"/></g>
<g><path style="opacity:1" fill="#2e2e2e" d="M 46.5,313.5 C 47.8333,313.5 49.1667,313.5 50.5,313.5C 51.487,317.637 52.8203,321.637 54.5,325.5C 52.9256,325.063 51.7589,324.063 51,322.5C 49.5935,319.315 48.0935,316.315 46.5,313.5 Z"/></g>
<g><path style="opacity:1" fill="#393939" d="M 208.5,307.5 C 209.15,307.804 209.817,308.137 210.5,308.5C 211.666,328.825 211.833,349.158 211,369.5C 209.951,370.517 208.784,370.684 207.5,370C 205.132,367.688 203.132,365.188 201.5,362.5C 204.401,363.536 206.901,365.203 209,367.5C 209.333,366.5 209.667,365.5 210,364.5C 210.667,346.5 210.667,328.5 210,310.5C 208.961,309.756 208.461,308.756 208.5,307.5 Z"/></g>
<g><path style="opacity:1" fill="#8c8c8c" d="M 206.5,311.5 C 207.793,312.842 208.626,314.509 209,316.5C 209.667,328.5 209.667,340.5 209,352.5C 208.333,353.167 207.667,353.833 207,354.5C 206.814,356.9 206.314,359.234 205.5,361.5C 202.983,359.151 200.65,356.651 198.5,354C 196.655,352.872 194.655,352.372 192.5,352.5C 190.859,346.542 187.192,342.542 181.5,340.5C 174.222,334.891 167.556,328.558 161.5,321.5C 162.873,321.343 164.207,321.51 165.5,322C 168.843,325.708 172.176,329.375 175.5,333C 179.731,333.047 183.064,331.214 185.5,327.5C 188.317,336.669 190.984,336.669 193.5,327.5C 194.892,328.605 196.059,329.939 197,331.5C 198.667,330.5 200,329.167 201,327.5C 202.274,331.985 202.941,336.652 203,341.5C 204.011,342.337 205.178,342.67 206.5,342.5C 206.5,332.167 206.5,321.833 206.5,311.5 Z"/></g>
<g><path style="opacity:0.996" fill="#363636" d="M 54.5,325.5 C 60.0718,326.988 63.4051,330.655 64.5,336.5C 62.5,334.833 60.5,333.167 58.5,331.5C 57.1667,329.5 55.8333,327.5 54.5,325.5 Z"/></g>
<g><path style="opacity:0.976" fill="#676767" d="M 344.5,326.5 C 340.533,332.467 335.533,337.467 329.5,341.5C 329.167,338.5 330.5,337.167 333.5,337.5C 333.33,336.178 333.663,335.011 334.5,334C 338.1,331.717 341.434,329.217 344.5,326.5 Z"/></g>
<g><path style="opacity:0.953" fill="#acacac" d="M 365.5,298.5 C 362.917,303.048 360.417,307.715 358,312.5C 353.219,316.712 349.552,321.712 347,327.5C 341.833,332.667 336.667,337.833 331.5,343C 328.446,345.42 325.113,347.254 321.5,348.5C 321.414,347.504 321.748,346.671 322.5,346C 324.985,344.671 327.319,343.171 329.5,341.5C 335.533,337.467 340.533,332.467 344.5,326.5C 344.5,326.167 344.5,325.833 344.5,325.5C 348.403,320.751 352.569,316.085 357,311.5C 358.773,308.713 359.94,305.713 360.5,302.5C 362.775,301.889 364.441,300.555 365.5,298.5 Z"/></g>
<g><path style="opacity:0.945" fill="#d0d0d0" d="M 56.5,331.5 C 57.1667,331.5 57.8333,331.5 58.5,331.5C 60.5,333.167 62.5,334.833 64.5,336.5C 64.8333,336.5 65.1667,336.5 65.5,336.5C 66.1098,337.391 66.4431,338.391 66.5,339.5C 66.369,340.239 66.5357,340.906 67,341.5C 69.8437,343.159 72.3437,345.159 74.5,347.5C 70.2214,348.546 67.5548,347.046 66.5,343C 64.7153,340.774 62.3819,339.608 59.5,339.5C 59.3614,336.412 58.3614,333.745 56.5,331.5 Z"/></g>
<g><path style="opacity:1" fill="#5f5f5f" d="M 181.5,340.5 C 187.192,342.542 190.859,346.542 192.5,352.5C 188.124,349.126 184.458,345.126 181.5,340.5 Z"/></g>
<g><path style="opacity:0.976" fill="#838383" d="M 66.5,339.5 C 71.4033,341.736 75.4033,345.069 78.5,349.5C 76.9382,349.267 75.6049,348.6 74.5,347.5C 72.3437,345.159 69.8437,343.159 67,341.5C 66.5357,340.906 66.369,340.239 66.5,339.5 Z"/></g>
<g><path style="opacity:0.996" fill="#2a2a2a" d="M 65.5,336.5 C 67.3841,336.712 68.7174,337.712 69.5,339.5C 71.4233,340.308 73.4233,340.808 75.5,341C 76.3366,342.011 76.67,343.178 76.5,344.5C 77.8333,344.5 79.1667,344.5 80.5,344.5C 81.0647,348.799 83.398,351.632 87.5,353C 88.2524,353.671 88.5858,354.504 88.5,355.5C 84.9075,353.902 81.5742,351.902 78.5,349.5C 75.4033,345.069 71.4033,341.736 66.5,339.5C 66.4431,338.391 66.1098,337.391 65.5,336.5 Z"/></g>
<g><path style="opacity:0.98" fill="#6e6e6e" d="M 78.5,349.5 C 81.5742,351.902 84.9075,353.902 88.5,355.5C 90.8693,356.69 92.8693,358.357 94.5,360.5C 90.3583,359.242 86.6916,357.242 83.5,354.5C 81.5,353.167 79.8333,351.5 78.5,349.5 Z"/></g>
<g><path style="opacity:1" fill="#6c6c6c" d="M 202.5,296.5 C 205.78,299.388 207.78,303.055 208.5,307.5C 208.461,308.756 208.961,309.756 210,310.5C 210.667,328.5 210.667,346.5 210,364.5C 209.667,365.5 209.333,366.5 209,367.5C 206.901,365.203 204.401,363.536 201.5,362.5C 198.5,359.167 195.5,355.833 192.5,352.5C 194.655,352.372 196.655,352.872 198.5,354C 200.65,356.651 202.983,359.151 205.5,361.5C 206.314,359.234 206.814,356.9 207,354.5C 207.667,353.833 208.333,353.167 209,352.5C 209.667,340.5 209.667,328.5 209,316.5C 208.626,314.509 207.793,312.842 206.5,311.5C 205.93,306.215 204.597,301.215 202.5,296.5 Z"/></g>
<g><path style="opacity:0.98" fill="#595959" d="M 321.5,348.5 C 320.833,349.5 320.167,350.5 319.5,351.5C 312.367,355.651 305.367,359.985 298.5,364.5C 298.33,363.178 298.663,362.011 299.5,361C 301.5,360.333 303.5,359.667 305.5,359C 310.442,354.889 315.776,351.389 321.5,348.5 Z"/></g>
<g><path style="opacity:0.945" fill="#c8c8c8" d="M 83.5,354.5 C 86.6916,357.242 90.3583,359.242 94.5,360.5C 97.8192,363.258 101.486,365.758 105.5,368C 106.448,368.483 107.448,368.649 108.5,368.5C 108.833,369.167 109.167,369.833 109.5,370.5C 107.139,370.326 104.806,369.993 102.5,369.5C 102.5,368.5 102.5,367.5 102.5,366.5C 99.8127,366.664 97.146,366.497 94.5,366C 93.6634,364.989 93.33,363.822 93.5,362.5C 90.4503,363.077 88.4503,361.91 87.5,359C 86.2068,358.51 84.8734,358.343 83.5,358.5C 83.5,357.167 83.5,355.833 83.5,354.5 Z"/></g>
<g><path style="opacity:0.988" fill="#424242" d="M 94.5,360.5 C 98.5972,362.537 102.931,363.871 107.5,364.5C 107.5,365.5 107.5,366.5 107.5,367.5C 110.812,367.149 113.145,368.482 114.5,371.5C 112.5,370.5 110.5,369.5 108.5,368.5C 107.448,368.649 106.448,368.483 105.5,368C 101.486,365.758 97.8192,363.258 94.5,360.5 Z"/></g>
<g><path style="opacity:0.961" fill="#959595" d="M 319.5,351.5 C 319.586,352.496 319.252,353.329 318.5,354C 313.854,356.93 309.188,359.763 304.5,362.5C 298.735,366.267 292.735,369.601 286.5,372.5C 286.369,371.761 286.536,371.094 287,370.5C 288.302,369.915 289.469,369.249 290.5,368.5C 292.482,365.863 295.148,364.53 298.5,364.5C 305.367,359.985 312.367,355.651 319.5,351.5 Z"/></g>
<g><path style="opacity:0.945" fill="#d7d7d7" d="M 304.5,362.5 C 304.16,365.675 302.493,367.841 299.5,369C 294.481,370.249 289.815,372.082 285.5,374.5C 285.719,375.675 285.386,376.675 284.5,377.5C 282.224,378.213 279.891,378.713 277.5,379C 276.833,379.667 276.167,380.333 275.5,381C 268.121,381.648 261.121,383.148 254.5,385.5C 258.817,383.515 263.15,381.515 267.5,379.5C 270.579,377.98 273.912,377.147 277.5,377C 279.973,374.453 282.973,372.953 286.5,372.5C 292.735,369.601 298.735,366.267 304.5,362.5 Z"/></g>
<g><path style="opacity:0.969" fill="#7d7d7d" d="M 108.5,368.5 C 110.5,369.5 112.5,370.5 114.5,371.5C 117.618,372.559 120.618,373.892 123.5,375.5C 128.122,378.239 133.122,380.239 138.5,381.5C 135.813,381.664 133.146,381.497 130.5,381C 127.91,379.555 125.243,378.388 122.5,377.5C 118.321,374.91 113.988,372.577 109.5,370.5C 109.167,369.833 108.833,369.167 108.5,368.5 Z"/></g>
<g><path style="opacity:0.976" fill="#666666" d="M 290.5,368.5 C 289.469,369.249 288.302,369.915 287,370.5C 286.536,371.094 286.369,371.761 286.5,372.5C 282.973,372.953 279.973,374.453 277.5,377C 273.912,377.147 270.579,377.98 267.5,379.5C 269.075,377.059 271.408,375.893 274.5,376C 278.5,373.667 282.5,371.333 286.5,369C 287.793,368.51 289.127,368.343 290.5,368.5 Z"/></g>
<g><path style="opacity:0.945" fill="#c4c4c4" d="M 122.5,377.5 C 125.243,378.388 127.91,379.555 130.5,381C 133.146,381.497 135.813,381.664 138.5,381.5C 145.793,384.666 153.46,386.666 161.5,387.5C 161.833,388.167 162.167,388.833 162.5,389.5C 157.821,389.666 153.155,389.499 148.5,389C 144.814,386.993 140.814,385.993 136.5,386C 133.393,383.301 129.727,381.967 125.5,382C 124.778,380.249 123.778,378.749 122.5,377.5 Z"/></g>
<g><path style="opacity:0.992" fill="#2d2d2d" d="M 123.5,375.5 C 127.302,374.88 130.635,375.714 133.5,378C 141.272,381.212 149.272,383.879 157.5,386C 166.565,386.425 175.565,387.425 184.5,389C 185.973,389.71 186.64,390.876 186.5,392.5C 183.833,392.5 181.167,392.5 178.5,392.5C 178.5,391.5 178.5,390.5 178.5,389.5C 172.9,388.314 167.233,387.647 161.5,387.5C 153.46,386.666 145.793,384.666 138.5,381.5C 133.122,380.239 128.122,378.239 123.5,375.5 Z"/></g>
<g><path style="opacity:0.973" fill="#7f7f7f" d="M 267.5,379.5 C 263.15,381.515 258.817,383.515 254.5,385.5C 254.167,385.5 253.833,385.5 253.5,385.5C 247.262,386.258 241.262,387.591 235.5,389.5C 234.005,389.415 233.005,390.081 232.5,391.5C 229.914,392.48 227.247,392.813 224.5,392.5C 224.414,391.504 224.748,390.671 225.5,390C 227.5,389.667 229.5,389.333 231.5,389C 232.056,388.617 232.389,388.117 232.5,387.5C 235.187,387.664 237.854,387.497 240.5,387C 249.714,384.919 258.714,382.419 267.5,379.5 Z"/></g>
<g><path style="opacity:0.957" fill="#b2b2b2" d="M 253.5,385.5 C 248.093,388.719 242.093,390.052 235.5,389.5C 241.262,387.591 247.262,386.258 253.5,385.5 Z"/></g>
<g><path style="opacity:0.969" fill="#949494" d="M 163.5,389.5 C 166.833,389.5 170.167,389.5 173.5,389.5C 173.5,390.5 173.5,391.5 173.5,392.5C 170.167,392.5 166.833,392.5 163.5,392.5C 163.5,391.5 163.5,390.5 163.5,389.5 Z"/></g>
<g><path style="opacity:0.98" fill="#5c5c5c" d="M 161.5,387.5 C 167.233,387.647 172.9,388.314 178.5,389.5C 178.5,390.5 178.5,391.5 178.5,392.5C 176.833,392.5 175.167,392.5 173.5,392.5C 173.5,391.5 173.5,390.5 173.5,389.5C 170.167,389.5 166.833,389.5 163.5,389.5C 163.167,389.5 162.833,389.5 162.5,389.5C 162.167,388.833 161.833,388.167 161.5,387.5 Z"/></g>
<g><path style="opacity:0.976" fill="#4b4b4b" d="M 232.5,387.5 C 232.389,388.117 232.056,388.617 231.5,389C 229.5,389.333 227.5,389.667 225.5,390C 224.748,390.671 224.414,391.504 224.5,392.5C 221.167,392.5 217.833,392.5 214.5,392.5C 214.5,391.5 214.5,390.5 214.5,389.5C 220.448,388.398 226.448,387.731 232.5,387.5 Z"/></g>
</svg>
