<svg version="1.1" id="Layer_1" xmlns="http://www.w3.org/2000/svg" xmlns:xlink="http://www.w3.org/1999/xlink" x="0px" y="0px"
	 width="100%" viewBox="0 0 200 200" enable-background="new 0 0 200 200" xml:space="preserve">
<path fill="#FEFEFE" opacity="1.000000" stroke="none" 
	d="
M120.000000,201.000000 
	C80.024696,201.000000 40.549400,201.000000 1.037050,201.000000 
	C1.037050,134.399734 1.037050,67.799454 1.037050,1.099581 
	C67.558464,1.099581 134.117126,1.099581 200.837891,1.099581 
	C200.837891,67.666351 200.837891,134.333145 200.837891,201.000000 
	C174.133072,201.000000 147.316528,201.000000 120.000000,201.000000 
M86.867638,28.681667 
	C85.604393,26.352341 83.718536,24.194275 81.930428,27.634573 
	C80.174591,31.012793 77.215317,31.622433 74.431854,33.230392 
	C70.015358,35.781727 65.172821,38.412621 64.927933,44.745739 
	C64.808685,47.829689 63.515644,50.219257 59.734016,50.024117 
	C56.978146,49.881908 55.458496,51.336422 56.213936,54.025887 
	C57.220436,57.609184 55.993599,58.163147 52.750839,57.595364 
	C52.016987,57.466869 50.033165,59.477596 50.200195,59.985924 
	C51.681835,64.494926 49.433048,65.169662 45.718029,65.107460 
	C44.689014,65.090225 43.385662,66.105164 42.721973,67.019493 
	C42.448486,67.396255 43.330845,68.976120 44.040329,69.619904 
	C45.204674,70.676407 46.656837,71.415718 47.859665,73.057617 
	C46.479019,76.676018 44.733231,80.200912 43.778782,83.928444 
	C38.729774,103.646980 42.962917,121.390373 56.938469,136.073517 
	C71.735634,151.619873 87.311844,166.425140 102.572525,181.529114 
	C103.673729,182.619019 104.976891,183.504883 107.257011,185.354126 
	C107.257011,176.588348 107.151505,169.177948 107.287575,161.771988 
	C107.415916,154.786911 104.460236,149.340546 99.610809,144.590912 
	C91.049721,136.206024 82.342979,127.949242 74.149513,119.214546 
	C62.555832,106.855042 63.077091,88.095406 74.935036,76.059151 
	C79.606453,71.317467 84.666985,66.917000 88.958801,61.859226 
	C91.554291,58.800526 94.370049,54.903725 94.715271,51.164520 
	C95.547340,42.152359 94.984962,33.011456 94.984962,22.744629 
	C92.108955,25.183229 89.626045,27.288521 86.867638,28.681667 
M106.139214,24.206015 
	C106.106316,32.022648 105.873367,39.845310 106.108818,47.653851 
	C106.273689,53.121574 108.377319,57.952141 112.418388,61.864120 
	C117.081970,66.378731 121.728485,70.918251 126.213745,75.608261 
	C135.697815,85.525261 137.245743,97.146370 133.063141,109.804955 
	C131.581573,114.288864 130.471405,114.508476 126.978241,111.101990 
	C117.329788,101.692917 107.770615,92.192352 98.155449,82.749031 
	C95.874611,80.508965 93.512650,78.351517 90.774689,75.765717 
	C90.774689,85.316200 90.344185,93.917969 90.977051,102.440781 
	C91.247185,106.078651 92.894852,110.346153 95.363388,112.962379 
	C106.153221,124.397766 117.484352,135.321838 128.592178,146.458267 
	C130.628021,148.499344 132.396729,148.723129 134.456482,146.401138 
	C136.659821,143.917267 139.107986,141.649506 141.464615,139.302795 
	C165.799042,115.070984 165.902512,81.706825 141.679016,57.212639 
	C135.712158,51.179104 129.715302,45.171520 123.599098,39.290478 
	C118.124908,34.026775 112.467270,28.953846 106.139214,24.206015 
M98.795097,124.222389 
	C98.509750,125.386375 98.224403,126.550354 97.939056,127.714340 
	C99.037544,127.273987 100.136024,126.833626 101.234505,126.393265 
	C100.661797,125.619476 100.089081,124.845688 98.795097,124.222389 
M78.409210,118.481956 
	C78.409210,118.481956 78.523361,118.412903 78.409210,118.481956 
z"/>
<path fill="#050408" opacity="1.000000" stroke="none" 
	d="
M106.514893,24.001379 
	C112.467270,28.953846 118.124908,34.026775 123.599098,39.290478 
	C129.715302,45.171520 135.712158,51.179104 141.679016,57.212639 
	C165.902512,81.706825 165.799042,115.070984 141.464615,139.302795 
	C139.107986,141.649506 136.659821,143.917267 134.456482,146.401138 
	C132.396729,148.723129 130.628021,148.499344 128.592178,146.458267 
	C117.484352,135.321838 106.153221,124.397766 95.363388,112.962379 
	C92.894852,110.346153 91.247185,106.078651 90.977051,102.440781 
	C90.344185,93.917969 90.774689,85.316200 90.774689,75.765717 
	C93.512650,78.351517 95.874611,80.508965 98.155449,82.749031 
	C107.770615,92.192352 117.329788,101.692917 126.978241,111.101990 
	C130.471405,114.508476 131.581573,114.288864 133.063141,109.804955 
	C137.245743,97.146370 135.697815,85.525261 126.213745,75.608261 
	C121.728485,70.918251 117.081970,66.378731 112.418388,61.864120 
	C108.377319,57.952141 106.273689,53.121574 106.108818,47.653851 
	C105.873367,39.845310 106.106316,32.022648 106.514893,24.001379 
z"/>
<path fill="#050509" opacity="1.000000" stroke="none" 
	d="
M87.143127,29.393814 
	C89.626045,27.288521 92.108955,25.183229 94.984962,22.744629 
	C94.984962,33.011456 95.547340,42.152359 94.715271,51.164520 
	C94.370049,54.903725 91.554291,58.800526 88.958801,61.859226 
	C84.666985,66.917000 79.606453,71.317467 74.935036,76.059151 
	C63.077091,88.095406 62.555832,106.855042 74.149513,119.214546 
	C82.342979,127.949242 91.049721,136.206024 99.610809,144.590912 
	C104.460236,149.340546 107.415916,154.786911 107.287575,161.771988 
	C107.151505,169.177948 107.257011,176.588348 107.257011,185.354126 
	C104.976891,183.504883 103.673729,182.619019 102.572525,181.529114 
	C87.311844,166.425140 71.735634,151.619873 56.938469,136.073517 
	C42.962917,121.390373 38.729774,103.646980 43.778782,83.928444 
	C44.733231,80.200912 46.479019,76.676018 48.154694,72.472946 
	C52.118690,67.007332 55.384232,61.747459 59.539669,57.323463 
	C68.498337,47.785812 77.914291,38.677696 87.143127,29.393814 
z"/>
<path fill="#FAFAF5" opacity="1.000000" stroke="none" 
	d="
M87.005386,29.037741 
	C77.914291,38.677696 68.498337,47.785812 59.539669,57.323463 
	C55.384232,61.747459 52.118690,67.007332 48.218674,72.088531 
	C46.656837,71.415718 45.204674,70.676407 44.040329,69.619904 
	C43.330845,68.976120 42.448486,67.396255 42.721973,67.019493 
	C43.385662,66.105164 44.689014,65.090225 45.718029,65.107460 
	C49.433048,65.169662 51.681835,64.494926 50.200195,59.985924 
	C50.033165,59.477596 52.016987,57.466869 52.750839,57.595364 
	C55.993599,58.163147 57.220436,57.609184 56.213936,54.025887 
	C55.458496,51.336422 56.978146,49.881908 59.734016,50.024117 
	C63.515644,50.219257 64.808685,47.829689 64.927933,44.745739 
	C65.172821,38.412621 70.015358,35.781727 74.431854,33.230392 
	C77.215317,31.622433 80.174591,31.012793 81.930428,27.634573 
	C83.718536,24.194275 85.604393,26.352341 87.005386,29.037741 
z"/>
<path fill="#F9F9F6" opacity="1.000000" stroke="none" 
	d="
M99.155731,124.147141 
	C100.089081,124.845688 100.661797,125.619476 101.234505,126.393265 
	C100.136024,126.833626 99.037544,127.273987 97.939056,127.714340 
	C98.224403,126.550354 98.509750,125.386375 99.155731,124.147141 
z"/>
<path fill="#F9F9F6" opacity="1.000000" stroke="none" 
	d="
M78.466286,118.447433 
	C78.523361,118.412903 78.409210,118.481956 78.466286,118.447433 
z"/>
</svg>