<svg version="1.1" id="Layer_1" xmlns="http://www.w3.org/2000/svg" xmlns:xlink="http://www.w3.org/1999/xlink" x="0px" y="0px"
	 width="100%" viewBox="0 0 512 512" enable-background="new 0 0 512 512" xml:space="preserve">
<path fill="#00AE35" opacity="1.000000" stroke="none" 
	d="
M289.000000,513.000000 
	C267.979095,513.000000 246.958206,513.000000 225.542603,512.583496 
	C221.531982,511.442017 217.932312,510.620697 214.297531,510.007477 
	C189.827591,505.879272 166.376846,498.502655 144.131912,487.525909 
	C124.407356,477.792908 106.243668,465.690002 89.592850,451.224152 
	C75.521179,438.999054 62.637466,425.672150 51.531807,410.781860 
	C38.108925,392.784637 26.954908,373.402039 18.733803,352.406921 
	C11.031799,332.737518 5.462063,312.542542 2.917125,291.538025 
	C2.806863,290.627960 1.662595,289.843140 0.999997,289.000000 
	C1.000000,267.979095 1.000000,246.958206 1.416478,225.542618 
	C2.557995,221.532059 3.379324,217.932434 3.992520,214.297699 
	C8.120721,189.827744 15.497276,166.376984 26.473980,144.132050 
	C36.207020,124.407463 48.309925,106.243767 62.775764,89.592896 
	C75.000862,75.521225 88.327827,62.637535 103.218094,51.531853 
	C121.215271,38.108925 140.597900,26.954945 161.593018,18.733831 
	C181.262436,11.031830 201.457413,5.462085 222.461960,2.917137 
	C223.372040,2.806870 224.156845,1.662603 225.000000,1.000001 
	C246.020889,1.000000 267.041779,1.000000 288.457397,1.416480 
	C294.907959,2.924641 301.005981,3.824148 307.012451,5.141086 
	C333.823792,11.019519 359.514343,19.868610 383.392181,33.693043 
	C400.573792,43.640591 416.875305,54.830444 431.013947,68.740532 
	C441.260925,78.821854 450.908813,89.597595 460.042236,100.706299 
	C475.844177,119.925743 487.596405,141.574524 496.439789,164.834167 
	C503.594055,183.651093 508.838165,202.917664 511.097778,222.961990 
	C511.181366,223.703384 512.341553,224.323410 513.000000,225.000000 
	C513.000000,246.020889 513.000000,267.041779 512.583496,288.457367 
	C511.075348,294.907898 510.180450,301.007080 508.858063,307.012115 
	C502.955872,333.814209 494.104858,359.505920 480.304352,383.390076 
	C470.371582,400.580475 459.169891,416.875031 445.259796,431.013672 
	C435.178436,441.260651 424.402588,450.908478 413.293884,460.041992 
	C394.074432,475.844055 372.425598,487.596252 349.165924,496.439697 
	C330.348938,503.593994 311.082306,508.838074 291.037933,511.097717 
	C290.296539,511.181274 289.676544,512.341492 289.000000,513.000000 
M385.352325,259.824982 
	C391.093201,243.460968 392.204773,226.809814 388.631226,209.457840 
	C387.460938,209.979736 386.545227,210.295090 385.720917,210.769333 
	C364.089783,223.213913 342.454773,235.652069 320.873383,248.182465 
	C319.364014,249.058823 318.009064,250.465469 317.013580,251.920593 
	C309.223785,263.307556 298.664307,269.915497 284.826874,271.316833 
	C282.103851,271.592621 279.205017,272.359589 276.850311,273.708313 
	C244.801407,292.065430 212.849579,310.591919 180.817673,328.978882 
	C178.234818,330.461487 177.102478,332.025360 177.120926,335.159363 
	C177.267212,359.991364 177.196579,384.824677 177.219620,409.657532 
	C177.220734,410.865295 177.474319,412.072754 177.662506,413.743744 
	C179.681122,412.665222 181.141098,411.902161 182.585556,411.110779 
	C199.069656,402.079559 215.558365,393.056702 232.029526,384.001953 
	C236.981949,381.279480 243.851624,379.594330 246.268646,375.382690 
	C248.806793,370.959930 247.135162,364.076752 247.164429,358.268097 
	C247.221298,346.983032 247.181076,335.697418 247.181076,323.960083 
	C249.309586,323.960083 250.934052,323.960144 252.558533,323.960083 
	C266.558289,323.959473 280.558929,324.060608 294.557648,323.939087 
	C336.002930,323.579285 371.340637,298.798950 385.352325,259.824982 
M288.456299,133.333786 
	C251.529022,133.333786 214.601746,133.333786 177.565002,133.333786 
	C177.565002,169.982651 177.565002,205.986099 177.565002,242.153183 
	C178.397446,241.990463 178.930771,242.015884 179.320251,241.791534 
	C201.222702,229.176270 223.135147,216.577713 244.945312,203.804520 
	C246.140305,203.104660 247.007843,200.967361 247.106339,199.439743 
	C247.391891,195.012070 247.207474,190.554108 247.207474,185.712509 
	C256.118622,185.712509 264.427460,185.824387 272.729614,185.637833 
	C274.945648,185.588043 277.405914,185.090866 279.305420,184.010406 
	C299.830627,172.335159 320.269287,160.507614 340.716003,148.694748 
	C341.623444,148.170486 342.381287,147.387390 343.298279,146.653275 
	C326.502869,136.439270 308.396423,133.146835 288.456299,133.333786 
M346.282379,222.762939 
	C375.631531,205.812943 404.980713,188.862961 434.762848,171.662918 
	C421.171875,157.168335 407.888123,143.001450 394.368500,128.582977 
	C360.576569,148.075729 326.960022,167.467316 292.975189,187.071335 
	C315.046753,196.011292 325.278473,211.792282 323.694275,235.721832 
	C331.323792,231.324158 338.473328,227.203156 346.282379,222.762939 
M200.722321,240.249695 
	C178.574310,253.061600 156.426300,265.873505 134.278290,278.685425 
	C134.434845,279.096649 134.591385,279.507843 134.747940,279.919067 
	C148.817688,279.919067 162.887451,279.919067 177.360550,279.919067 
	C177.360550,293.405640 177.360550,306.458466 177.360550,320.276459 
	C205.215912,304.188843 232.420151,288.477234 259.624390,272.765656 
	C259.518341,272.400360 259.412323,272.035034 259.306274,271.669739 
	C255.409149,271.669739 251.512024,271.669739 247.015228,271.669739 
	C247.015228,252.178329 247.015228,233.196701 247.015228,213.561539 
	C231.297058,222.642792 216.339111,231.284821 200.722321,240.249695 
M121.259338,352.862183 
	C122.284470,352.011139 123.359177,351.212738 124.327118,350.300995 
	C134.896805,340.345093 135.552505,323.720856 125.818756,312.953613 
	C116.216911,302.332275 99.745872,301.195648 88.875076,310.404236 
	C78.269249,319.388367 76.163979,334.629578 83.958977,345.994995 
	C92.149490,357.937103 106.975357,360.864166 121.259338,352.862183 
z"/>
<path fill="#000000" opacity="1.000000" stroke="none" 
	d="
M289.468658,513.000000 
	C289.676544,512.341492 290.296539,511.181274 291.037933,511.097717 
	C311.082306,508.838074 330.348938,503.593994 349.165924,496.439697 
	C372.425598,487.596252 394.074432,475.844055 413.293884,460.041992 
	C424.402588,450.908478 435.178436,441.260651 445.259796,431.013672 
	C459.169891,416.875031 470.371582,400.580475 480.304352,383.390076 
	C494.104858,359.505920 502.955872,333.814209 508.858063,307.012115 
	C510.180450,301.007080 511.075348,294.907898 512.583496,288.926025 
	C513.000000,363.593719 513.000000,438.187408 513.000000,513.000000 
	C438.645905,513.000000 364.291626,513.000000 289.468658,513.000000 
z"/>
<path fill="#000000" opacity="1.000000" stroke="none" 
	d="
M513.000000,224.531342 
	C512.341553,224.323410 511.181366,223.703384 511.097778,222.961990 
	C508.838165,202.917664 503.594055,183.651093 496.439789,164.834167 
	C487.596405,141.574524 475.844177,119.925743 460.042236,100.706299 
	C450.908813,89.597595 441.260925,78.821854 431.013947,68.740532 
	C416.875305,54.830444 400.573792,43.640591 383.392181,33.693043 
	C359.514343,19.868610 333.823792,11.019519 307.012451,5.141086 
	C301.005981,3.824148 294.907959,2.924641 288.926025,1.416480 
	C363.593719,1.000000 438.187408,1.000000 513.000000,1.000000 
	C513.000000,75.354088 513.000000,149.708389 513.000000,224.531342 
z"/>
<path fill="#000000" opacity="1.000000" stroke="none" 
	d="
M224.531342,1.000001 
	C224.156845,1.662603 223.372040,2.806870 222.461960,2.917137 
	C201.457413,5.462085 181.262436,11.031830 161.593018,18.733831 
	C140.597900,26.954945 121.215271,38.108925 103.218094,51.531853 
	C88.327827,62.637535 75.000862,75.521225 62.775764,89.592896 
	C48.309925,106.243767 36.207020,124.407463 26.473980,144.132050 
	C15.497276,166.376984 8.120721,189.827744 3.992520,214.297699 
	C3.379324,217.932434 2.557995,221.532059 1.416478,225.073959 
	C1.000000,150.406296 1.000000,75.812576 1.000000,1.000000 
	C75.354088,1.000000 149.708389,1.000000 224.531342,1.000001 
z"/>
<path fill="#000000" opacity="1.000000" stroke="none" 
	d="
M0.999997,289.468658 
	C1.662595,289.843140 2.806863,290.627960 2.917125,291.538025 
	C5.462063,312.542542 11.031799,332.737518 18.733803,352.406921 
	C26.954908,373.402039 38.108925,392.784637 51.531807,410.781860 
	C62.637466,425.672150 75.521179,438.999054 89.592850,451.224152 
	C106.243668,465.690002 124.407356,477.792908 144.131912,487.525909 
	C166.376846,498.502655 189.827591,505.879272 214.297531,510.007477 
	C217.932312,510.620697 221.531982,511.442017 225.073944,512.583496 
	C150.406296,513.000000 75.812599,513.000000 1.000000,513.000000 
	C1.000000,438.645905 1.000000,364.291626 0.999997,289.468658 
z"/>
<path fill="#FDFFFE" opacity="1.000000" stroke="none" 
	d="
M385.219360,260.194580 
	C371.340637,298.798950 336.002930,323.579285 294.557648,323.939087 
	C280.558929,324.060608 266.558289,323.959473 252.558533,323.960083 
	C250.934052,323.960144 249.309586,323.960083 247.181076,323.960083 
	C247.181076,335.697418 247.221298,346.983032 247.164429,358.268097 
	C247.135162,364.076752 248.806793,370.959930 246.268646,375.382690 
	C243.851624,379.594330 236.981949,381.279480 232.029526,384.001953 
	C215.558365,393.056702 199.069656,402.079559 182.585556,411.110779 
	C181.141098,411.902161 179.681122,412.665222 177.662506,413.743744 
	C177.474319,412.072754 177.220734,410.865295 177.219620,409.657532 
	C177.196579,384.824677 177.267212,359.991364 177.120926,335.159363 
	C177.102478,332.025360 178.234818,330.461487 180.817673,328.978882 
	C212.849579,310.591919 244.801407,292.065430 276.850311,273.708313 
	C279.205017,272.359589 282.103851,271.592621 284.826874,271.316833 
	C298.664307,269.915497 309.223785,263.307556 317.013580,251.920593 
	C318.009064,250.465469 319.364014,249.058823 320.873383,248.182465 
	C342.454773,235.652069 364.089783,223.213913 385.720917,210.769333 
	C386.545227,210.295090 387.460938,209.979736 388.631226,209.457840 
	C392.204773,226.809814 391.093201,243.460968 385.219360,260.194580 
z"/>
<path fill="#FCFEFD" opacity="1.000000" stroke="none" 
	d="
M288.947540,133.333801 
	C308.396423,133.146835 326.502869,136.439270 343.298279,146.653275 
	C342.381287,147.387390 341.623444,148.170486 340.716003,148.694748 
	C320.269287,160.507614 299.830627,172.335159 279.305420,184.010406 
	C277.405914,185.090866 274.945648,185.588043 272.729614,185.637833 
	C264.427460,185.824387 256.118622,185.712509 247.207474,185.712509 
	C247.207474,190.554108 247.391891,195.012070 247.106339,199.439743 
	C247.007843,200.967361 246.140305,203.104660 244.945312,203.804520 
	C223.135147,216.577713 201.222702,229.176270 179.320251,241.791534 
	C178.930771,242.015884 178.397446,241.990463 177.565002,242.153183 
	C177.565002,205.986099 177.565002,169.982651 177.565002,133.333786 
	C214.601746,133.333786 251.529022,133.333786 288.947540,133.333801 
z"/>
<path fill="#FDFEFE" opacity="1.000000" stroke="none" 
	d="
M345.952637,222.922546 
	C338.473328,227.203156 331.323792,231.324158 323.694275,235.721832 
	C325.278473,211.792282 315.046753,196.011292 292.975189,187.071335 
	C326.960022,167.467316 360.576569,148.075729 394.368500,128.582977 
	C407.888123,143.001450 421.171875,157.168335 434.762848,171.662918 
	C404.980713,188.862961 375.631531,205.812943 345.952637,222.922546 
z"/>
<path fill="#FCFEFD" opacity="1.000000" stroke="none" 
	d="
M201.051758,240.088287 
	C216.339111,231.284821 231.297058,222.642792 247.015228,213.561539 
	C247.015228,233.196701 247.015228,252.178329 247.015228,271.669739 
	C251.512024,271.669739 255.409149,271.669739 259.306274,271.669739 
	C259.412323,272.035034 259.518341,272.400360 259.624390,272.765656 
	C232.420151,288.477234 205.215912,304.188843 177.360550,320.276459 
	C177.360550,306.458466 177.360550,293.405640 177.360550,279.919067 
	C162.887451,279.919067 148.817688,279.919067 134.747940,279.919067 
	C134.591385,279.507843 134.434845,279.096649 134.278290,278.685425 
	C156.426300,265.873505 178.574310,253.061600 201.051758,240.088287 
z"/>
<path fill="#FCFEFD" opacity="1.000000" stroke="none" 
	d="
M120.945251,353.048676 
	C106.975357,360.864166 92.149490,357.937103 83.958977,345.994995 
	C76.163979,334.629578 78.269249,319.388367 88.875076,310.404236 
	C99.745872,301.195648 116.216911,302.332275 125.818756,312.953613 
	C135.552505,323.720856 134.896805,340.345093 124.327118,350.300995 
	C123.359177,351.212738 122.284470,352.011139 120.945251,353.048676 
z"/>
</svg>